<?xml version="1.0" encoding="utf-8"?>
<!-- Generator: Adobe Illustrator 19.2.1, SVG Export Plug-In . SVG Version: 6.00 Build 0)  -->
<svg version="1.1" id="Layer_1" xmlns="http://www.w3.org/2000/svg" xmlns:xlink="http://www.w3.org/1999/xlink" x="0px" y="0px"
	 viewBox="0 0 283.4 283.4" style="enable-background:new 0 0 283.4 283.4;" xml:space="preserve">
<style type="text/css">
	.st0{clip-path:url(#SVGID_2_);}
	.st1{fill:#FFF276;}
	.st2{clip-path:url(#SVGID_4_);}
	.st3{fill:#FFFFFF;}
	.st4{fill:#1D47A8;}
	.st5{clip-path:url(#SVGID_6_);}
	.st6{fill:#8EC8FE;}
</style>
<g id="Kujundus">
</g>
<g id="Layer_3">
</g>
<g>
	<g>
		<g>
			<defs>
				<rect id="SVGID_1_" x="-0.5" y="0" width="283.4" height="283.4"/>
			</defs>
			<clipPath id="SVGID_2_">
				<use xlink:href="#SVGID_1_"  style="overflow:visible;"/>
			</clipPath>
			<g class="st0">
				<g>
					<path class="st1" d="M238.1,33.2c0.5-3.1-1.2-5.5-5.8-6.2c-3.9-0.6-6.9,1.1-9.2,3.8c-0.9,1.1-2.6,1.2-3.7,0.3l-6.9-5.5
						c-1.2-0.9-1.4-2.6-0.4-3.8c5.5-7,14.1-10,23-8.6c10.1,1.6,19.3,9.4,17.5,20.9c-1.9,11.9-14.1,14.6-17.2,19.5
						c-0.6,1-1.7,1.5-2.8,1.3l-8.9-1.4c-1.8-0.3-2.9-2.3-2-3.9C225.5,42.3,237.1,40.1,238.1,33.2z M217.3,73.2
						c-0.5-5.7,5.2-9.8,10.4-7.6c2.5,1.1,4.2,3.4,4.5,6.1c0.5,5.6-5.2,9.8-10.4,7.6C219.3,78.3,217.6,75.9,217.3,73.2z"/>
				</g>
			</g>
		</g>
		<g id="Layer_2">
			<defs>
				<rect id="SVGID_3_" x="-0.5" y="0" width="283.4" height="283.4"/>
			</defs>
			<clipPath id="SVGID_4_">
				<use xlink:href="#SVGID_3_"  style="overflow:visible;"/>
			</clipPath>
			<g class="st2">
				<g>
					<path class="st3" d="M204.2,129.6c8.6,36.8-14.4,73.6-51.2,82.1c-36.8,8.6-73.6-14.4-82.2-51.2C62.3,123.8,85.2,87,122,78.4
						C158.9,69.9,195.6,92.8,204.2,129.6"/>
				</g>
				<g>
					<path class="st4" d="M62.7,149.6c0-37.8,30.3-69.1,68.3-70.1c38.7-1,70.9,29.6,72,68.3c0,0.6,0,1.2,0,1.9
						c0,37.8-30.2,69.1-68.3,70.1c-38.6,1-70.9-29.6-71.9-68.3C62.8,150.9,62.7,150.2,62.7,149.6 M199.6,149.7c0-0.6,0-1.2,0-1.8
						c-1-36.8-31.7-66-68.5-65c-36.2,1-65,30.7-65,66.7c0,0.6,0,1.2,0,1.8c1,36.8,31.7,66,68.5,65
						C170.8,215.4,199.6,185.7,199.6,149.7"/>
				</g>
				<g>
					<polygon class="st4" points="145.1,145.2 153.5,142.5 160.9,164.1 152.3,168.5 					"/>
				</g>
				<g>
					<path class="st4" d="M173.1,180l-20,7.2c0,0,3.9,8.8,11.9,6.4C172.9,191.2,173.1,180,173.1,180"/>
				</g>
				<g>
					<path class="st4" d="M86,143.6l5.3,89.8l-60.2,7.7c0,0-23.7-125.4,2-159.6C59.7,46,94.9,23.4,151.2,42
						c37,12.2,41.8,64.2,41.8,64.2L86,143.6z"/>
				</g>
				<g>
					<path class="st3" d="M100.1,168.2c0.1,5.6-4.2,10.2-9.8,10.3c-5.6,0.1-10.2-4.2-10.3-9.8c-0.1-5.6,4.2-10.2,9.8-10.3
						C95.3,158.3,99.9,162.7,100.1,168.2"/>
				</g>
				<g>
					<circle class="st1" cx="124.3" cy="183.5" r="14.6"/>
				</g>
				<g>
					<path class="st4" d="M130,158.3c0.1,3.2-2.4,5.9-5.6,6s-5.8-2.5-5.9-5.7s2.4-5.9,5.6-6C127.3,152.5,130,155,130,158.3"/>
				</g>
				<g>
					<g>
						<defs>
							<path id="SVGID_5_" d="M197.5,149.8c0-0.6,0-1.2,0-1.8c-1-36.8-31.7-66-68.5-65c-36.2,1-65,30.7-65,66.7c0,0.6,0,1.2,0,1.8
								c1,36.8,31.7,66,68.5,65C168.7,215.6,197.5,185.8,197.5,149.8z"/>
						</defs>
						<clipPath id="SVGID_6_">
							<use xlink:href="#SVGID_5_"  style="overflow:visible;"/>
						</clipPath>
						<g class="st5">
							<circle class="st1" cx="192.8" cy="155.3" r="14.6"/>
						</g>
					</g>
					<g>
						<path class="st4" d="M178.9,139.1c0.1,3.2-2.4,5.9-5.6,6c-3.2,0.1-5.8-2.5-5.9-5.7c-0.1-3.2,2.4-5.9,5.6-6
							C176.1,133.4,178.8,135.9,178.9,139.1"/>
					</g>
					<g>
						<g>
							<path class="st6" d="M166,244.9l55.4,7.5c3.2,0.4,6.2-2,7-5.6l16.4-77.7c0.8-3.8-1.3-7.4-4.6-8l-48.2-9.7
								c-3.3-0.7-6.7,1.9-7.4,5.7L169,240.7"/>
						</g>
						<g>
							<path class="st4" d="M158.6,240.4l1.3-4l53.3,17c2,0.6,4.4-0.7,5.3-3.1l29.6-73.7c0.6-1.4,0.6-2.8,0-4c-0.3-0.7-0.9-1.6-2-2
								l-45.8-17.8c-1.1-0.4-2.1-0.2-2.8,0.1c-1.2,0.5-2.2,1.6-2.7,3L165,235.6l-3.9-1.4l29.9-79.7c0.9-2.4,2.7-4.4,4.9-5.4
								c2-0.9,4.1-1,6-0.2l45.8,17.8c1.9,0.7,3.4,2.2,4.3,4.2c1,2.2,1,4.9,0,7.2l-29.6,73.7c-1.8,4.4-6.3,6.8-10.4,5.5L158.6,240.4z
								"/>
						</g>
					</g>
					<g>
						<path class="st3" d="M141.8,253.8l13.2-25.2c0-0.1,0.1-0.1,0.1-0.1l15.2-6.4c0.2-0.1,0.4,0.1,0.3,0.3l-5.2,13.4
							c-0.1,0.3,0.2,0.5,0.4,0.3l24.1-19.4c0.2-0.1,0.4,0,0.4,0.1l9.2,37.5c0,0.1-6.9,9-7,9.1l-41,2.3c-0.1,0.1-0.2,0-0.3-0.1
							l-9.5-11.5C141.7,254.1,141.7,253.9,141.8,253.8z"/>
						<path class="st4" d="M151.4,267.2c-0.7,0-1.1-0.4-1.2-0.6l-0.1-0.1l-9.8-11.9v-0.5c0-0.2,0-0.6,0.3-1.1l13.1-25
							c0.2-0.4,0.5-0.8,1-0.9l15.1-6.4c0.6-0.3,1.3-0.2,1.8,0.3c0.5,0.5,0.6,1.2,0.3,1.8l-3.6,9.3l21-16.8c0.5-0.3,1.2-0.3,1.7,0.1
							c0.4,0.2,0.6,0.6,0.7,1l9.2,37.6v0.2c0,1-7.3,10-7.4,10.1l-0.4,0.4L151.4,267.2C151.4,267.2,151.4,267.2,151.4,267.2z
							 M143.4,253.9l8.6,10.4l39.9-2.2c1.2-1.6,5-6.5,6.2-8l-8.6-35.1l-22.6,18.2c-0.6,0.5-1.3,0.6-2,0.2c-0.7-0.4-1-1.2-0.7-2
							l4.2-10.9l-12.2,5.1L143.4,253.9z M170.9,223.4l-0.1,0.1C170.8,223.4,170.9,223.4,170.9,223.4z"/>
					</g>
				</g>
			</g>
		</g>
		<g id="Layer_4">
		</g>
	</g>
</g>
</svg>
