<?xml version="1.0" encoding="utf-8"?>
<!-- Generator: Adobe Illustrator 19.2.1, SVG Export Plug-In . SVG Version: 6.00 Build 0)  -->
<svg version="1.1" id="Layer_1" xmlns="http://www.w3.org/2000/svg" xmlns:xlink="http://www.w3.org/1999/xlink" x="0px" y="0px"
	 viewBox="0 0 283.4 283.4" style="enable-background:new 0 0 283.4 283.4;" xml:space="preserve">
<style type="text/css">
	.st0{clip-path:url(#SVGID_2_);}
	.st1{fill:#1D47A8;}
	.st2{fill:#FFFFFF;}
	.st3{fill:#8E9090;}
	.st4{fill:#FFAEF4;}
	.st5{fill:#FFF276;}
	.st6{fill:#8EC8FE;}
</style>
<g id="Kujundus">
</g>
<g id="Layer_3">
</g>
<g id="Layer_2">
	<g>
		<g>
			<defs>
				<rect id="SVGID_1_" y="0" width="283.4" height="283.4"/>
			</defs>
			<clipPath id="SVGID_2_">
				<use xlink:href="#SVGID_1_"  style="overflow:visible;"/>
			</clipPath>
			<g class="st0">
				<g>
					<g>
						<path class="st1" d="M242.2,171.9l1.8,2.1c0.4,0.5,10.8,13.1,3.9,23.8c-5.6,8.8-15.9,6.9-20.6,4.7l-1.9-0.9L242.2,171.9z
							 M235.7,200.6c3.1,0,6.5-1,9-4.8c3.8-6,0.3-13.3-2-16.9l-11.8,21C232.2,200.2,233.9,200.6,235.7,200.6"/>
					</g>
					<g>
						<path class="st1" d="M105.6,140.7l1.1,34.1L104,174c-0.7-0.2-16-5.6-15.6-18.4c0.3-10.4,10-14.1,15.2-14.7L105.6,140.7z
							 M102.6,169.2l-0.7-24.1c-3.3,0.9-9.5,3.4-9.7,10.6C92,162.8,98.8,167.2,102.6,169.2"/>
					</g>
					<g>
						<path class="st2" d="M237.6,144.2c11.2,38.1-10.5,78.1-48.7,89.4c-38.1,11.2-78.1-10.5-89.4-48.7
							c-11.2-38.1,10.5-78.1,48.7-89.4C186.4,84.3,226.4,106,237.6,144.2"/>
					</g>
					<g>
						<path class="st1" d="M173.2,84.9c31.9,0,61.4,20.9,70.9,53c5.6,18.9,3.5,38.9-6,56.2c-9.4,17.3-25,29.9-44,35.5
							c-18.9,5.6-38.9,3.5-56.2-6c-17.3-9.4-29.9-25-35.5-44c-11.5-39.1,10.9-80.2,49.9-91.7C159.3,85.8,166.3,84.9,173.2,84.9
							 M173.3,228.8c6.5,0,13.2-0.9,19.8-2.9c17.9-5.3,32.8-17.3,41.7-33.7s11-35.4,5.7-53.3c-10.9-37-49.9-58.3-87-47.4
							c-37,10.9-58.3,50-47.4,87C115.1,209,143,228.8,173.3,228.8"/>
					</g>
					<g>
						<path class="st3" d="M259.7,87.2c-23.4-40.3-71.1-53.7-127.9-27.9c-37.3,17-36.5,71.8-36.5,71.8l32.7,9.6l22.4-31.9l-9.6,35.6
							l52.9,15.5l62,17.7C255.6,177.7,284.6,130.2,259.7,87.2"/>
					</g>
					<g>
						<polygon class="st1" points="168.3,165.7 159.6,162.5 150.2,186.8 159.6,189.9 						"/>
					</g>
					<g>
						<circle class="st4" cx="194.7" cy="190.4" r="14"/>
					</g>
					<g>
						<circle class="st4" cx="124.9" cy="174.8" r="14"/>
					</g>
					<g>
						<path class="st1" d="M185,177.4c0.7,3.3,3.9,5.5,7.1,4.8c3.3-0.7,5.4-3.9,4.8-7.2c-0.7-3.3-3.9-5.5-7.2-4.8
							C186.5,170.8,184.4,174,185,177.4"/>
					</g>
					<g>
						<path class="st1" d="M129.6,162.2c0.7,3.3,3.9,5.5,7.1,4.8c3.3-0.6,5.4-3.9,4.8-7.2c-0.7-3.3-3.9-5.5-7.2-4.8
							C131.1,155.7,129,158.9,129.6,162.2"/>
					</g>
					<g>
						<path class="st1" d="M167.1,207.6l-24.8-6.9c0,0-2.3,11.4,7.2,14.6C159.1,218.6,167.1,207.6,167.1,207.6"/>
					</g>
				</g>
				<g>
					<g>
						<path class="st5" d="M15.1,182.1l15-7.1l0.4,0.7c1,1.7,2.3,3.2,3.9,4.3c2.3,1.7,5,2.6,7.7,2.6c3.5,0,6.6-1.5,8.6-4.1
							c2.5-3.4,2.5-8.2,0-12.2l-0.5-0.9l15.2-7.2l29.3,63L46.2,245L15.1,182.1z"/>
					</g>
					<g>
						<path class="st1" d="M69.7,160.7L91.1,225l-49.3,17.7l-12.5-34.8l-10.6-29.6l14.1-4.8c0.8,1.8,1.9,3.6,3.6,5.1
							c2.3,2.1,5.1,3.4,7.9,3.7c3.6,0.4,7.2-0.7,9.7-3.4c3.2-3.5,3.7-8.7,1.5-13.2L69.7,160.7 M70.9,158.5l-1.7,0.6L55,163.9
							l-1.9,0.7l0.9,1.8c1.9,3.9,1.4,8.3-1.2,11.2c-2,2.2-5,3.2-8.2,2.9c-2.5-0.3-5-1.4-6.9-3.2c-1.4-1.3-2.4-2.8-3.1-4.4l-0.6-1.6
							l-1.6,0.5l-14.1,4.8l-1.7,0.6l0.6,1.7l10.6,29.6l12.5,34.8l0.6,1.7l1.7-0.6l49.3-17.7l1.6-0.6l-0.6-1.7l-21.4-64.2L70.9,158.5
							L70.9,158.5z"/>
						<path class="st1" d="M40.5,245.9l-0.8-2.4l-12.5-34.8l-11.4-32l2.4-0.8l16.4-5.5l0.8,2.2c0.7,1.6,1.7,3,2.9,4.1
							c1.7,1.7,4.1,2.7,6.5,3c3,0.3,5.8-0.7,7.6-2.7c2.4-2.7,2.9-6.8,1.1-10.4l-1.3-2.5l2.6-1l16.6-5.6l0.8,2.4l21.4,64.2l0.8,2.3
							l-2.3,0.8L40.5,245.9z M17.5,177.6l0.4,1l10.6,29.6l12.9,35.8l1-0.4l50.2-18.1l-0.4-1l-21.4-64.2l-0.4-1l-1,0.4L54.1,165
							l0.5,1.1c2,4.1,1.5,8.9-1.3,12c-2.1,2.3-5.3,3.5-8.8,3.1c-2.8-0.3-5.4-1.5-7.3-3.4c-1.4-1.3-2.5-2.8-3.3-4.6l-0.4-1l-1,0.3
							L17.5,177.6z M41.4,243.6l-23.6-65.7l15.4-5.2l0.3,0.6c0.9,2,2,3.6,3.4,4.9c2.2,2,4.8,3.2,7.5,3.5c3.5,0.4,6.9-0.8,9.1-3.2
							c2.9-3.2,3.5-8.1,1.4-12.4l-0.3-0.7l15.6-5.5L92,225.4L41.4,243.6z M19.6,178.7L30,207.7l12.3,34.1l48-17.2l-21-63l-12.8,4.5
							c2,4.7,1.2,9.8-1.9,13.3c-2.5,2.7-6.3,4.1-10.3,3.6c-3-0.3-5.9-1.7-8.3-3.9c-1.4-1.2-2.6-2.8-3.5-4.7L19.6,178.7z"/>
					</g>
					<g>
						<path class="st6" d="M31,205.3l59.6,7.5c2.5,0.3,4.4,2.2,4.9,4.6l1.6,8.9c0.5,2.8-1.1,5.6-3.9,6.4l-49.7,15.6
							c-2.9,0.9-6-0.6-7-3.5l-11.6-32C23.5,208.9,26.8,204.8,31,205.3z"/>
						<path class="st1" d="M41.8,250c-2.9,0-5.6-1.8-6.6-4.7l-11.6-32c-0.8-2.3-0.4-4.8,1.1-6.7c1.6-2,4-3,6.5-2.7l0,0l59.6,7.5
							c3,0.4,5.5,2.7,6.1,5.7l1.6,8.9c0.6,3.6-1.5,7-4.9,8l-49.7,15.6C43.2,249.9,42.5,250,41.8,250z M30.3,206.7
							c-1.3,0-2.6,0.6-3.4,1.6c-0.9,1.2-1.2,2.6-0.7,4l11.6,32c0.7,2.2,3,3.3,5.2,2.6l49.7-15.6c2.1-0.6,3.3-2.6,2.9-4.8l-1.6-8.9
							c-0.4-1.8-1.9-3.2-3.7-3.4l-59.6-7.5C30.7,206.7,30.5,206.7,30.3,206.7z"/>
					</g>
					<g>
						<path class="st2" d="M57.7,264.2l-11-11.9c-0.4-0.4-0.7-1-0.8-1.6l-0.4-2.3c-0.2-1.3,0.5-2.6,1.7-3.2l0.5-0.3
							c1.5-0.7,2.1-2.5,1.4-4l-7.8-17.2c-0.9-2,0.6-4.3,2.8-4.3l25.1,0.3c1.4,0,2.6,1,2.9,2.3l7,30.2c0.3,1.3-0.3,2.7-1.5,3.3
							l-16.4,9.1C60.1,265.5,58.6,265.2,57.7,264.2z"/>
						<path class="st1" d="M59.7,266.6c-1.1,0-2.2-0.5-3-1.4l-11-11.9c-0.6-0.6-1-1.4-1.2-2.3l-0.4-2.3c-0.3-1.9,0.7-3.8,2.4-4.7
							l0.6-0.3c0.8-0.4,1.1-1.3,0.7-2.1L40,224.3c-0.6-1.4-0.5-3,0.3-4.2c0.8-1.3,2.2-2.1,3.8-2.1l25.1,0.3c2,0,3.8,1.4,4.3,3.4
							l7,30.2c0.5,2-0.5,4-2.2,4.9l-16.2,9C61.3,266.3,60.5,266.6,59.7,266.6z M48.4,246.1l-0.5,0.3c-0.7,0.3-1,1-0.9,1.7l0.4,2.3
							c0.1,0.3,0.2,0.7,0.4,0.8l11.1,12c0.4,0.4,1,0.7,1.5,0.3l0.2-0.1l16.4-9.1c0.6-0.3,1-1.1,0.8-1.7l-7-30.2
							c-0.2-0.7-0.8-1.2-1.5-1.2l-25.1-0.3c-0.5,0-1,0.3-1.4,0.8c-0.3,0.5-0.4,1-0.1,1.5l7.8,17.2C51.4,242.5,50.5,245.1,48.4,246.1
							z"/>
					</g>
				</g>
			</g>
		</g>
	</g>
</g>
<g id="Layer_4">
</g>
</svg>
