<?xml version="1.0" encoding="utf-8"?>
<!-- Generator: Adobe Illustrator 19.2.1, SVG Export Plug-In . SVG Version: 6.00 Build 0)  -->
<svg version="1.1" id="Layer_1" xmlns="http://www.w3.org/2000/svg" xmlns:xlink="http://www.w3.org/1999/xlink" x="0px" y="0px"
	 viewBox="0 0 283.4 283.4" style="enable-background:new 0 0 283.4 283.4;" xml:space="preserve">
<style type="text/css">
	.st0{fill:#FFFFFF;}
	.st1{fill:#1D47A8;}
	.st2{clip-path:url(#SVGID_2_);}
	.st3{fill:#FFF276;}
	.st4{fill:#8EC8FE;}
</style>
<g id="Kujundus">
</g>
<g id="Layer_3">
</g>
<g>
	<g id="Layer_2">
		<g>
			<g>
				<path class="st0" d="M204.2,129.6c8.6,36.8-14.4,73.6-51.2,82.1c-36.8,8.6-73.6-14.4-82.2-51.2C62.3,123.8,85.2,87,122,78.4
					C158.9,69.9,195.6,92.8,204.2,129.6"/>
			</g>
			<g>
				<path class="st1" d="M62.7,149.6c0-37.8,30.3-69.1,68.3-70.1c38.7-1,70.9,29.6,72,68.3c0,0.6,0,1.2,0,1.9
					c0,37.8-30.2,69.1-68.3,70.1c-38.6,1-70.9-29.6-71.9-68.3C62.8,150.9,62.7,150.2,62.7,149.6 M199.6,149.7c0-0.6,0-1.2,0-1.8
					c-1-36.8-31.7-66-68.5-65c-36.2,1-65,30.7-65,66.7c0,0.6,0,1.2,0,1.8c1,36.8,31.7,66,68.5,65
					C170.8,215.4,199.6,185.7,199.6,149.7"/>
			</g>
			<g>
				<polygon class="st1" points="145.1,145.2 153.5,142.5 160.9,164.1 152.3,168.5 				"/>
			</g>
			<g>
				<path class="st1" d="M86,143.6l5.3,89.8l-60.2,7.7c0,0-23.7-125.4,2-159.6C59.7,46,94.9,23.4,151.2,42
					c37,12.2,41.8,64.2,41.8,64.2L86,143.6z"/>
			</g>
			<g>
				<path class="st0" d="M100.1,168.2c0.1,5.6-4.2,10.2-9.8,10.3c-5.6,0.1-10.2-4.2-10.3-9.8c-0.1-5.6,4.2-10.2,9.8-10.3
					C95.3,158.3,99.9,162.7,100.1,168.2"/>
			</g>
			<g>
				<path class="st1" d="M130,158.3c0.1,3.2-2.4,5.9-5.6,6s-5.8-2.5-5.9-5.7s2.4-5.9,5.6-6C127.3,152.5,130,155,130,158.3"/>
			</g>
			<g>
				<g>
					<g>
						<defs>
							<path id="SVGID_1_" d="M197.5,149.8c0-0.6,0-1.2,0-1.8c-1-36.8-31.7-66-68.5-65c-36.2,1-65,30.7-65,66.7c0,0.6,0,1.2,0,1.8
								c1,36.8,31.7,66,68.5,65C168.7,215.6,197.5,185.8,197.5,149.8z"/>
						</defs>
						<clipPath id="SVGID_2_">
							<use xlink:href="#SVGID_1_"  style="overflow:visible;"/>
						</clipPath>
						<g class="st2">
							<circle class="st3" cx="192.8" cy="155.3" r="14.6"/>
						</g>
					</g>
				</g>
				<g>
					<path class="st1" d="M178.9,139.1c0.1,3.2-2.4,5.9-5.6,6c-3.2,0.1-5.8-2.5-5.9-5.7c-0.1-3.2,2.4-5.9,5.6-6
						C176.1,133.4,178.8,135.9,178.9,139.1"/>
				</g>
				<g>
					<g>
						<path class="st4" d="M166,244.9l55.4,7.5c3.2,0.4,6.2-2,7-5.6l16.4-77.7c0.8-3.8-1.3-7.4-4.6-8l-48.2-9.7
							c-3.3-0.7-6.7,1.9-7.4,5.7L169,240.7"/>
					</g>
					<g>
						<path class="st1" d="M158.6,240.4l1.3-4l53.3,17c2,0.6,4.4-0.7,5.3-3.1l29.6-73.7c0.6-1.4,0.6-2.8,0-4c-0.3-0.7-0.9-1.6-2-2
							l-45.8-17.8c-1.1-0.4-2.1-0.2-2.8,0.1c-1.2,0.5-2.2,1.6-2.7,3L165,235.6l-3.9-1.4l29.9-79.7c0.9-2.4,2.7-4.4,4.9-5.4
							c2-0.9,4.1-1,6-0.2l45.8,17.8c1.9,0.7,3.4,2.2,4.3,4.2c1,2.2,1,4.9,0,7.2l-29.6,73.7c-1.8,4.4-6.3,6.8-10.4,5.5L158.6,240.4z"
							/>
					</g>
				</g>
				<g>
					<path class="st0" d="M141.8,253.8l13.2-25.2c0-0.1,0.1-0.1,0.1-0.1l15.2-6.4c0.2-0.1,0.4,0.1,0.3,0.3l-5.2,13.4
						c-0.1,0.3,0.2,0.5,0.4,0.3l24.1-19.4c0.2-0.1,0.4,0,0.4,0.1l9.2,37.5c0,0.1-6.9,9-7,9.1l-41,2.3c-0.1,0.1-0.2,0-0.3-0.1
						l-9.5-11.5C141.7,254.1,141.7,253.9,141.8,253.8z"/>
					<path class="st1" d="M151.4,267.2c-0.7,0-1.1-0.4-1.2-0.6l-0.1-0.1l-9.8-11.9v-0.5c0-0.2,0-0.6,0.3-1.1l13.1-25
						c0.2-0.4,0.5-0.8,1-0.9l15.1-6.4c0.6-0.3,1.3-0.2,1.8,0.3c0.5,0.5,0.6,1.2,0.3,1.8l-3.6,9.3l21-16.8c0.5-0.3,1.2-0.3,1.7,0.1
						c0.4,0.2,0.6,0.6,0.7,1l9.2,37.6v0.2c0,1-7.3,10-7.4,10.1l-0.4,0.4L151.4,267.2C151.4,267.2,151.4,267.2,151.4,267.2z
						 M143.4,253.9l8.6,10.4l39.9-2.2c1.2-1.6,5-6.5,6.2-8l-8.6-35.1l-22.6,18.2c-0.6,0.5-1.3,0.6-2,0.2c-0.7-0.4-1-1.2-0.7-2
						l4.2-10.9l-12.2,5.1L143.4,253.9z M170.9,223.4l-0.1,0.1C170.8,223.4,170.9,223.4,170.9,223.4z"/>
				</g>
			</g>
		</g>
	</g>
	<g id="Layer_4">
	</g>
</g>
<ellipse class="st1" cx="156.2" cy="194.7" rx="6.7" ry="10.6"/>
<path class="st3" d="M242.2,29.5c8.2,8.2,15.1,23.8,4.2,51.9l15.5-2.2c2.6-0.4,5.1,1.4,5.4,4.1c0.4,2.6-1.4,5.1-4.1,5.4l-23.8,3.4
	c-0.1,0-0.2,0-0.3,0c-0.5,0.1-1,0-1.5-0.1c-0.2,0-0.4,0-0.5-0.1c-0.2-0.1-0.3-0.2-0.5-0.3l0,0c-0.1-0.1-0.2-0.2-0.3-0.2
	c-0.3-0.2-0.6-0.3-0.9-0.6l-17-17c-1.9-1.9-1.9-4.9,0-6.8s4.9-1.9,6.8,0l11.9,11.9c5.8-14.5,9-31.8-1.7-42.5
	c-7.3-7.3-21.1-8-38.9-1.9c-2.5,0.8-5.2-0.5-6.1-3c-0.9-2.5,0.5-5.3,3-6.1C220.8,15.9,235.1,22.4,242.2,29.5"/>
<circle class="st3" cx="120.5" cy="186.2" r="14.7"/>
</svg>
