<?xml version="1.0" encoding="utf-8"?>
<!-- Generator: Adobe Illustrator 19.2.1, SVG Export Plug-In . SVG Version: 6.00 Build 0)  -->
<svg version="1.1" xmlns="http://www.w3.org/2000/svg" xmlns:xlink="http://www.w3.org/1999/xlink" x="0px" y="0px"
	 viewBox="0 0 283.4 283.4" style="enable-background:new 0 0 283.4 283.4;" xml:space="preserve">
<style type="text/css">
	.st0{fill:#1D439B;}
	.st1{fill:#1791FF;}
	.st2{fill:none;stroke:#FFFFFF;stroke-width:2.8346;stroke-linejoin:round;stroke-miterlimit:10;}
	.st3{fill:#FFFFFF;}
	.st4{fill:#8E9090;}
	.st5{fill:#8E9090;stroke:#FFFFFF;stroke-miterlimit:10;}
	.st6{fill:none;stroke:#8E9090;stroke-width:2.8346;stroke-miterlimit:10;}
	.st7{fill:none;stroke:#8E9090;stroke-width:3;stroke-miterlimit:10;}
	.st8{fill:#1D47A8;}
	.st9{clip-path:url(#SVGID_4_);}
	.st10{fill:none;stroke:#FFFFFF;stroke-width:2.8346;stroke-miterlimit:10;}
	.st11{fill:none;stroke:#FFFFFF;stroke-width:3;stroke-linejoin:round;stroke-miterlimit:10;}
	.st12{fill:#FFAEF4;}
	.st13{fill:#FFF276;}
	.st14{fill:#1D47A8;stroke:#1D47A8;stroke-width:1.4173;stroke-miterlimit:10;}
	.st15{fill:#8EC8FE;stroke:#1D47A8;stroke-width:2.8346;stroke-miterlimit:10;}
	.st16{fill:#FFFFFF;stroke:#1D47A8;stroke-width:2.8346;stroke-miterlimit:10;}
	.st17{clip-path:url(#SVGID_10_);fill:#FFF276;}
	.st18{fill:#8EC8FE;}
	.st19{clip-path:url(#SVGID_12_);fill:#FFF276;}
	.st20{fill:none;stroke:#1D47A8;stroke-width:3;stroke-linecap:round;stroke-miterlimit:10;}
</style>
<g id="Kujundus">
	<g>
		<g>
			<g>
				<defs>
					<rect id="SVGID_15_" width="283.4" height="283.4"/>
				</defs>
				<clipPath id="SVGID_2_">
					<use xlink:href="#SVGID_15_"  style="overflow:visible;"/>
				</clipPath>
			</g>
			<g id="Layer_2_1_">
				<defs>
					<rect id="SVGID_17_" width="283.4" height="283.4"/>
				</defs>
				<clipPath id="SVGID_4_">
					<use xlink:href="#SVGID_17_"  style="overflow:visible;"/>
				</clipPath>
			</g>
		</g>
	</g>
	<g>
		<g>
			<path class="st8" d="M211,192.9l2,2c0.5,0.5,12.4,12.3,6.5,24c-4.8,9.6-15.6,8.7-20.6,7l-2-0.7L211,192.9z M207.3,223
				c3.2-0.3,6.6-1.7,8.7-5.8c3.3-6.6-1-13.7-3.8-17.2l-9.9,22.7C203.5,222.9,205.3,223.2,207.3,223"/>
			<path class="st8" d="M63.7,189.5l-2.4-1.5c-0.6-0.4-14.9-9.1-11.9-21.8c2.5-10.4,13.1-12.1,18.4-11.6l2.1,0.2L63.7,189.5z
				 M60.3,159.4c-3,1-6,3.2-7.1,7.7c-1.7,7.2,4.2,13,7.7,15.8l4.3-24.4C63.9,158.6,62.1,158.8,60.3,159.4"/>
			<path class="st3" d="M204.4,167.3c10.1,39-13.3,78.9-52.3,89c-39,10.1-78.9-13.3-89-52.3c-10.1-39,13.3-78.9,52.3-89
				C154.4,104.9,194.3,128.3,204.4,167.3"/>
			<path class="st8" d="M65.4,182.2c0-13.2,3.5-26.2,10.4-37.9c10.2-17.3,26.4-29.5,45.8-34.6c40-10.4,81,13.7,91.4,53.7
				c5,19.4,2.2,39.6-7.9,56.8c-10.1,17.3-26.4,29.5-45.8,34.6c-19.4,5-39.6,2.2-56.8-7.9c-17.3-10.1-29.5-26.4-34.6-45.8
				C66.2,194.9,65.4,188.5,65.4,182.2 M211.5,182.5c0-6-0.8-12-2.3-18c-9.8-37.9-48.7-60.8-86.7-50.9c-18.4,4.8-33.8,16.4-43.4,32.8
				c-9.6,16.4-12.3,35.5-7.5,53.9c4.8,18.4,16.4,33.8,32.8,43.4c16.4,9.6,35.5,12.3,53.9,7.5c18.4-4.8,33.8-16.4,43.4-32.8
				C208.2,207.3,211.5,195,211.5,182.5"/>
			<path class="st4" d="M230.4,112.7C208,71,160.1,55.8,101.6,80.1c-38.4,16-39.4,71.7-39.4,71.7L95,162.6l23.8-31.6l-10.9,35.8
				l53.2,17.5l62.3,20C223.3,204.4,254.3,157.1,230.4,112.7"/>
			<polygon class="st8" points="132.1,193 123.1,190.4 115.7,213.7 125,218.1 			"/>
			
				<rect x="113.3" y="235.3" transform="matrix(0.9995 -3.180100e-002 3.180100e-002 0.9995 -7.4793 4.1668)" class="st8" width="28" height="3.9"/>
			<circle class="st12" cx="159.5" cy="216.2" r="14.4"/>
			<circle class="st12" cx="93" cy="204.4" r="14.4"/>
			<path class="st8" d="M146.1,198.3c0.6,3.4,3.7,5.7,7.1,5.1c3.4-0.6,5.6-3.8,5.1-7.2c-0.6-3.4-3.7-5.7-7.1-5.1
				C147.8,191.7,145.6,194.9,146.1,198.3"/>
			<path class="st8" d="M97.5,188.3c0.6,3.4,3.7,5.7,7.1,5.1c3.4-0.6,5.6-3.8,5.1-7.2c-0.6-3.4-3.7-5.7-7.1-5.1
				C99.2,181.7,96.9,184.9,97.5,188.3"/>
		</g>
	</g>
	<g>
		<path class="st12" d="M44.1,55c-0.4-4.5,2.9-8.5,7.4-8.9c4.5-0.4,8.5,2.9,8.9,7.4c0.4,4.5-2.9,8.5-7.4,8.9
			C48.5,62.8,44.5,59.5,44.1,55z"/>
		<path class="st12" d="M68.1,52.7c-0.4-4.5,2.9-8.5,7.4-8.9c4.5-0.4,8.5,2.9,8.9,7.4c0.4,4.5-2.9,8.5-7.4,8.9
			C72.6,60.5,68.5,57.1,68.1,52.7z"/>
		<path class="st12" d="M92.1,50.3c-0.4-4.5,2.9-8.5,7.4-8.9c4.5-0.4,8.5,2.9,8.9,7.4c0.4,4.5-2.9,8.5-7.4,8.9
			C96.6,58.1,92.5,54.8,92.1,50.3z"/>
	</g>
</g>
<g id="Layer_3">
</g>
<g id="Layer_2">
</g>
<g id="Layer_4">
</g>
</svg>
