<?xml version="1.0" encoding="utf-8"?>
<!-- Generator: Adobe Illustrator 19.2.1, SVG Export Plug-In . SVG Version: 6.00 Build 0)  -->
<svg version="1.1" id="Layer_1" xmlns="http://www.w3.org/2000/svg" xmlns:xlink="http://www.w3.org/1999/xlink" x="0px" y="0px"
	 viewBox="0 0 350.8 231.3" style="enable-background:new 0 0 350.8 231.3;" xml:space="preserve">
<style type="text/css">
	.st0{clip-path:url(#SVGID_2_);fill:#1791FF;}
	.st1{clip-path:url(#SVGID_4_);}
	.st2{fill:#FFFFFF;stroke:#8E9090;stroke-width:2.8347;stroke-miterlimit:10;}
</style>
<g id="Layer_5">
</g>
<g id="Layer_3">
</g>
<g id="Layer_2">
</g>
<g id="Layer_4">
</g>
<g>
	<g>
		<defs>
			<rect id="SVGID_1_" y="0" width="350.8" height="231.3"/>
		</defs>
		<clipPath id="SVGID_2_">
			<use xlink:href="#SVGID_1_"  style="overflow:visible;"/>
		</clipPath>
		<circle class="st0" cx="173.7" cy="111.8" r="100.8"/>
	</g>
</g>
<g>
	<defs>
		<rect id="SVGID_3_" x="0" y="2.4" width="350.8" height="226.6"/>
	</defs>
	<clipPath id="SVGID_4_">
		<use xlink:href="#SVGID_3_"  style="overflow:visible;"/>
	</clipPath>
	<g class="st1">
		<path class="st2" d="M99.5,73l17.8,99.1l-22.7,4.1L81.1,101l-16.7,8l-9-18.4l24.2-14L99.5,73z"/>
		<path class="st2" d="M195,124.1c3.7,20.5-8.7,37.7-30.6,41.6c-22,3.9-39.4-7.8-43.1-28.4c-1.4-7.6-0.5-15,2.2-21.2l22.1-51.5
			l26.1-4.7l-15.9,35.2C175.8,93.3,191.6,104.9,195,124.1z M172.4,128.2c-1.5-8.6-9.1-12.5-16.6-11.2c-7.6,1.4-13.3,7.5-11.7,16.3
			c1.6,8.8,9,12.6,16.6,11.2C168.2,143.1,173.9,136.8,172.4,128.2z"/>
		<path class="st2" d="M264,145.9L224,105.7l8.2,45.9l-22.7,4.1l-17.8-99.1l22.7-4.1l7.7,43.1L244.8,47l25.8-4.6l-24.8,54.3
			l43.9,44.6L264,145.9z"/>
	</g>
</g>
</svg>
