<?xml version="1.0" encoding="utf-8"?>
<!-- Generator: Adobe Illustrator 19.2.1, SVG Export Plug-In . SVG Version: 6.00 Build 0)  -->
<svg version="1.1" id="Layer_1" xmlns="http://www.w3.org/2000/svg" xmlns:xlink="http://www.w3.org/1999/xlink" x="0px" y="0px"
	 viewBox="0 0 350.8 231.3" style="enable-background:new 0 0 350.8 231.3;" xml:space="preserve">
<style type="text/css">
	.st0{clip-path:url(#SVGID_2_);fill:#1791FF;}
	.st1{clip-path:url(#SVGID_4_);}
	.st2{fill:#FFFFFF;}
	.st3{fill:#8E9090;}
</style>
<g id="Layer_5">
</g>
<g id="Layer_3">
</g>
<g id="Layer_2">
</g>
<g id="Layer_4">
</g>
<g>
	<g>
		<defs>
			<rect id="SVGID_1_" y="0" width="350.8" height="231.3"/>
		</defs>
		<clipPath id="SVGID_2_">
			<use xlink:href="#SVGID_1_"  style="overflow:visible;"/>
		</clipPath>
		<circle class="st0" cx="173.7" cy="111.8" r="100.8"/>
	</g>
</g>
<g>
	<defs>
		<rect id="SVGID_3_" x="0" y="2.4" width="350.8" height="226.6"/>
	</defs>
	<clipPath id="SVGID_4_">
		<use xlink:href="#SVGID_3_"  style="overflow:visible;"/>
	</clipPath>
	<g class="st1">
		<g>
			<g>
				<path class="st2" d="M209.8,113.3c-1.8,0-3.6-0.2-5.4-0.4c-21.4-3-36.3-22.8-33.4-44.1c2.7-19.2,19.3-33.8,38.7-33.8
					c1.8,0,3.6,0.1,5.4,0.4c21.4,3,36.3,22.8,33.4,44.2C245.9,98.7,229.2,113.3,209.8,113.3C209.8,113.3,209.8,113.3,209.8,113.3z"
					/>
				<path class="st3" d="M209.8,36.3c1.7,0,3.4,0.1,5.2,0.4c20.6,2.8,35,21.9,32.2,42.5c-2.6,18.8-18.8,32.5-37.3,32.5
					c-1.7,0-3.4-0.1-5.2-0.4c-20.6-2.8-35-21.9-32.2-42.5C175.1,50,191.3,36.3,209.8,36.3 M209.8,33.5c-20.1,0-37.4,15-40.1,35
					c-3.1,22.1,12.5,42.6,34.6,45.7c1.8,0.3,3.7,0.4,5.6,0.4c20.1,0,37.4-15,40.1-35c3.1-22.1-12.5-42.6-34.6-45.7
					C213.5,33.6,211.6,33.5,209.8,33.5L209.8,33.5z"/>
			</g>
			<g>
				<path class="st2" d="M197.9,199.6c-1.8,0-3.6-0.1-5.4-0.4c-21.4-3-36.3-22.7-33.4-44.1c2.7-19.2,19.3-33.8,38.7-33.8
					c1.8,0,3.6,0.1,5.4,0.4c10.3,1.4,19.5,6.8,25.8,15.1c6.3,8.3,9,18.6,7.6,29C233.9,185.1,217.3,199.6,197.9,199.6
					C197.9,199.6,197.9,199.6,197.9,199.6z M104.8,184.2l19.6-142l42.7-11.2l-21.9,158.8L104.8,184.2z"/>
				<path class="st3" d="M165.4,32.8L144,188.2l-37.6-5.2l19.3-139.7L165.4,32.8 M197.8,122.8c1.7,0,3.4,0.1,5.2,0.4
					c20.6,2.8,35,21.9,32.2,42.5c-2.6,18.8-18.8,32.5-37.3,32.5c-1.7,0-3.4-0.1-5.2-0.4c-20.6-2.8-35-21.9-32.2-42.5
					C163.1,136.5,179.3,122.8,197.8,122.8 M168.8,29l-4.1,1.1L125,40.5l-1.8,0.5l-0.3,1.9l-19.3,139.7l-0.4,2.8l2.8,0.4l37.6,5.2
					l2.8,0.4l0.4-2.8l21.5-155.3L168.8,29L168.8,29z M197.8,120c-20.1,0-37.4,15-40.1,35c-3.1,22.1,12.5,42.6,34.6,45.7
					c1.8,0.3,3.7,0.4,5.6,0.4c20.1,0,37.4-15,40.1-35c3.1-22.1-12.5-42.6-34.6-45.7C201.6,120.1,199.7,120,197.8,120L197.8,120z"/>
			</g>
		</g>
	</g>
</g>
</svg>
