<?xml version="1.0" encoding="utf-8"?>
<!-- Generator: Adobe Illustrator 19.2.1, SVG Export Plug-In . SVG Version: 6.00 Build 0)  -->
<svg version="1.1" xmlns="http://www.w3.org/2000/svg" xmlns:xlink="http://www.w3.org/1999/xlink" x="0px" y="0px"
	 viewBox="0 0 350.8 231.3" style="enable-background:new 0 0 350.8 231.3;" xml:space="preserve">
<style type="text/css">
	.st0{fill:#1D439B;}
	.st1{fill:#1791FF;}
	.st2{fill:none;stroke:#FFFFFF;stroke-width:2.8346;stroke-linejoin:round;stroke-miterlimit:10;}
	.st3{fill:#1D47A8;}
	.st4{clip-path:url(#SVGID_4_);}
	.st5{fill:#FFFFFF;}
	.st6{fill:none;stroke:#FFFFFF;stroke-width:2.8346;stroke-miterlimit:10;}
	.st7{fill:none;stroke:#FFFFFF;stroke-width:3;stroke-linejoin:round;stroke-miterlimit:10;}
	.st8{fill:#8E9090;}
	.st9{fill:#FFAEF4;}
	.st10{fill:#FFF276;}
	.st11{fill:#1D47A8;stroke:#1D47A8;stroke-width:1.4173;stroke-miterlimit:10;}
	.st12{fill:#8EC8FE;stroke:#1D47A8;stroke-width:2.8346;stroke-miterlimit:10;}
	.st13{fill:#FFFFFF;stroke:#1D47A8;stroke-width:2.8346;stroke-miterlimit:10;}
	.st14{clip-path:url(#SVGID_10_);fill:#FFF276;}
	.st15{fill:#8EC8FE;}
	.st16{clip-path:url(#SVGID_12_);fill:#FFF276;}
	.st17{fill:none;stroke:#1D47A8;stroke-width:3;stroke-linecap:round;stroke-miterlimit:10;}
	.st18{clip-path:url(#SVGID_16_);fill:#1791FF;}
	.st19{clip-path:url(#SVGID_16_);}
	.st20{fill:#8E9090;stroke:#FFFFFF;stroke-miterlimit:10;}
	.st21{clip-path:url(#SVGID_18_);fill:#1791FF;}
	.st22{clip-path:url(#SVGID_20_);fill:#1791FF;}
	.st23{clip-path:url(#SVGID_20_);}
	.st24{clip-path:url(#SVGID_22_);}
	.st25{fill:none;stroke:#8E9090;stroke-width:2.8346;stroke-miterlimit:10;}
	.st26{clip-path:url(#SVGID_24_);}
	.st27{fill:none;stroke:#8E9090;stroke-width:3;stroke-miterlimit:10;}
	.st28{clip-path:url(#SVGID_26_);}
	.st29{clip-path:url(#SVGID_28_);}
</style>
<g id="Kujundus">
	<g>
		<defs>
			<rect id="SVGID_17_" x="0" width="350.8" height="231.3"/>
		</defs>
		<clipPath id="SVGID_2_">
			<use xlink:href="#SVGID_17_"  style="overflow:visible;"/>
		</clipPath>
		<circle style="clip-path:url(#SVGID_2_);fill:#1791FF;" cx="173.7" cy="111.8" r="100.8"/>
	</g>
	<g>
		<defs>
			<rect id="SVGID_25_" x="0" width="350.8" height="226.6"/>
		</defs>
		<clipPath id="SVGID_4_">
			<use xlink:href="#SVGID_25_"  style="overflow:visible;"/>
		</clipPath>
		<g class="st4">
			<path class="st5" d="M70.2,44.1c1.4-5.2-5.1,28.4,0.8,51.2l3,0.3l199.4-1.1l2-1.2c0,0,4.7-37.6,0-50.4c-1.6-4.5-77.4-8.8-132-6.4
				C99,38.5,70.2,44.1,70.2,44.1z"/>
			<path class="st5" d="M73.9,95.6c0,0-2.3,73.9,2.2,90.2c0,1.6,193.1,2,193.1,2s2.5-13.7,2.5-27.4c0-13.6-0.2-66-0.2-66L73.9,95.6z
				"/>
			<g>
				<path class="st25" d="M70.2,44.1c1.4-5.2-5.1,28.4,0.8,51.2l3,0.3l199.4-1.1l2-1.2c0,0,4.7-37.6,0-50.4
					c-1.6-4.5-77.4-8.8-132-6.4C99,38.5,70.2,44.1,70.2,44.1z"/>
				<path class="st25" d="M73.9,95.6c0,0-2.3,73.9,2.2,90.2c0,1.6,193.1,2,193.1,2s2.5-13.7,2.5-27.4c0-13.6-0.2-66-0.2-66
					L73.9,95.6z"/>
				<polyline class="st27" points="124.5,37.8 123.5,42.7 123.5,95.4 220.5,94.8 220.5,41.8 217.6,36.5 				"/>
				<polyline class="st27" points="219.5,94.4 219.5,167.6 170.9,158.3 121.5,167.6 121.5,96.4 				"/>
				<g>
					<g>
						<circle class="st8" cx="177.2" cy="59.5" r="7.5"/>
						<path class="st8" d="M160,84.4h7V52.6l-7,3.1V84.4z M177.2,69.3c-4.1,0-7.5,3.3-7.5,7.5s3.3,7.5,7.5,7.5s7.5-3.3,7.5-7.5
							S181.3,69.3,177.2,69.3z"/>
					</g>
				</g>
			</g>
			<line class="st25" x1="70.2" y1="44.1" x2="274.1" y2="41.6"/>
		</g>
	</g>
</g>
<g id="Layer_5">
</g>
<g id="Layer_3">
</g>
<g id="Layer_2">
</g>
<g id="Layer_4">
</g>
</svg>
