<?xml version="1.0" encoding="utf-8"?>
<!-- Generator: Adobe Illustrator 19.2.1, SVG Export Plug-In . SVG Version: 6.00 Build 0)  -->
<svg version="1.1" id="Layer_1" xmlns="http://www.w3.org/2000/svg" xmlns:xlink="http://www.w3.org/1999/xlink" x="0px" y="0px"
	 viewBox="0 0 350.8 231.3" style="enable-background:new 0 0 350.8 231.3;" xml:space="preserve">
<style type="text/css">
	.st0{clip-path:url(#SVGID_2_);fill:#1791FF;}
	.st1{clip-path:url(#SVGID_4_);fill:#1791FF;}
	.st2{clip-path:url(#SVGID_6_);}
	.st3{fill:#8E9090;}
	.st4{fill:#FFFFFF;}
</style>
<g id="Kujundus">
	<g>
		<g>
			<defs>
				<rect id="SVGID_1_" y="0" width="350.8" height="231.3"/>
			</defs>
			<clipPath id="SVGID_2_">
				<use xlink:href="#SVGID_1_"  style="overflow:visible;"/>
			</clipPath>
			<circle class="st0" cx="173.7" cy="111.8" r="100.8"/>
		</g>
	</g>
	<g>
		<g>
			<defs>
				<rect id="SVGID_3_" y="0" width="350.8" height="231.3"/>
			</defs>
			<clipPath id="SVGID_4_">
				<use xlink:href="#SVGID_3_"  style="overflow:visible;"/>
			</clipPath>
			<circle class="st1" cx="174.2" cy="111.8" r="100.8"/>
		</g>
		<g>
			<defs>
				<rect id="SVGID_5_" y="0" width="350.8" height="231.3"/>
			</defs>
			<clipPath id="SVGID_6_">
				<use xlink:href="#SVGID_5_"  style="overflow:visible;"/>
			</clipPath>
			<g class="st2">
				<path class="st3" d="M298.8,55.6l-0.6,10c0,0-7.4,1.5-15.7,10.1c-9.4,9.9-6.1,32.4,5.5,42.1c0,0,6.7,4.1,14.4,3.9l2,7.1
					c0,0-3.6,2.1-5.8,8.2c-3,8.5-2.2,14.5-2.2,14.5l-5.5,2.3l-34.8-55.4l5-30.9l36.8-13.8L298.8,55.6z"/>
				<path class="st3" d="M297.6,152.2l-7.1,3l-35.6-56.5l0.1-0.4l5.1-31.5l0.6-0.2l37.8-14.2l1.4,3.2l-0.7,10.8l-0.8,0.2
					c-0.1,0-7.2,1.5-15.1,9.8c-3.6,3.8-5.5,10.1-5.1,17.2c0.5,9.3,4.5,18.2,10.5,23.3l0,0c0,0,6.5,3.8,13.7,3.7h0.8l2.5,8.7
					l-0.7,0.4c0,0-3.3,2-5.3,7.6l0,0c-2.9,8.2-2.1,14-2.1,14L297.6,152.2z M291.3,152.4l3.9-1.6c-0.1-2-0.2-7.3,2.3-14.2l0,0
					c1.7-4.8,4.3-7.3,5.5-8.2l-1.6-5.6c-7.6-0.1-13.9-3.9-14.1-4.1c-6.6-5.5-10.9-15-11.4-24.9c-0.4-7.9,1.6-14.5,5.7-18.9
					c6.9-7.2,13.2-9.6,15.5-10.2l0.5-8.9l-0.3-0.6L262,68.4l-4.8,29.8L291.3,152.4z"/>
				<path class="st4" d="M299,55.6l-16.4-34.2L49.4,85.7l15.9,122l2.2,11.8l228.2-67l1.1-0.3c0,0-1.3-2.3-2.5-7.6
					c-2.9-13.3,9-22.4,9-22.4s-26.1-0.9-32.5-26.4c-7.2-28.9,27.5-39.9,27.5-39.9L299,55.6z"/>
				<path class="st3" d="M297.9,151.6l-0.6,1.6l-1.1,0.3L68,220.5l-1.4-0.8l-2.2-11.8l-16-122.1l0.8-1.2l233.2-64.3l1.3,0.6
					L300,55.1l-0.6,1.5l-0.6,0.2c-1.4,0.4-33.6,11.1-26.8,38.6c6.1,24.4,31.2,25.6,31.5,25.6l0.6,1.9c-0.1,0.1-11.2,8.9-8.6,21.4
					C296.6,149.3,297.9,151.5,297.9,151.6 M68.4,218.1l227-66.7c-0.5-1.2-1.3-3.4-2-6.6c-2.3-10.6,4.1-18.6,7.5-21.9
					c-6.8-1-25.7-5.7-31-27c-6.8-27.4,23-39.3,27.6-41L282,22.7L50.6,86.5l15.8,121.1L68.4,218.1z"/>
				<polygon class="st3" points="294.4,57.9 292.5,58.8 278.6,28.2 56.4,91.1 71.5,196.5 81.3,194.3 81.8,196.4 69.6,199.1 
					69.5,198 54,89.5 54.9,89.2 279.8,25.6 				"/>
				<polygon class="st3" points="296.6,132.1 79.3,197.1 79.2,195.9 65.3,98.5 54.6,91.2 55.8,89.4 67.4,97.3 81.1,194.3 296,130.1 
									"/>
				<polygon class="st3" points="275.7,40.4 275.1,40.6 66.6,99 66.1,96.9 274,38.6 278.2,26.6 280.3,27.3 				"/>
				
					<rect x="61.8" y="172.3" transform="matrix(0.9585 -0.285 0.285 0.9585 -41.9313 58.6479)" class="st3" width="237.5" height="2.2"/>
				<polygon class="st3" points="154.1,134.2 153,134.9 78.2,178.2 77.1,176.3 150.8,133.6 148.2,130.4 78.1,170.1 77.1,168.2 
					148.8,127.6 				"/>
				<path class="st3" d="M187.6,125c-2.9,8.1-14.6,17.5-17.6,18.4c-3.4,1.1-10.6-1-19.7-10.4c-9-9.3-6.9-18.4-1.9-23.8
					c4.5-4.9,24.7-4.2,26.9-4.1l-0.1,2.2c-5.9-0.3-22-0.2-25.2,3.4c-2.1,2.3-8.1,10.5,1.9,20.8c9,9.3,15.3,10.5,17.4,9.8
					c3-0.9,16.7-12.3,16.7-19.7h2.2C188.3,122.8,188,123.9,187.6,125"/>
				<path class="st4" d="M152.4,73.2c-0.2-2.3,1.4-4.9,3.9-4.9c2.5-0.1,26.2,31,26.2,31l-6.7,5.1L152.4,73.2z"/>
				<path class="st3" d="M184,99.5l-8.4,6.5l-24.3-32.4v-0.3c-0.1-1.6,0.5-3.3,1.6-4.5c0.9-1,2.1-1.6,3.4-1.6
					c2.5-0.1,16.1,17.1,27.1,31.4L184,99.5z M176,102.9l4.9-3.8c-10.7-14-22.9-28.9-24.9-29.8c-0.6,0.1-1.3,0.5-1.6,0.9
					c-0.6,0.7-1,1.7-1,2.6L176,102.9z"/>
				<path class="st4" d="M191.6,119.5c4.4-4.1,0.6-10.1-1.2-13.3c-1.6-2.9-6.2-10.1-11.1-6.1c-4.9,4-4.8,7.1-1,13.1
					C182.1,119.1,186.3,124.4,191.6,119.5"/>
				<path class="st3" d="M194.3,117.4c-0.4,1-1,2-2,2.9c-1.8,1.7-3.7,2.4-5.6,2.2c-3.7-0.5-6.6-4.5-9.3-8.7
					c-3.7-5.8-4.5-9.9,1.3-14.5c1.5-1.2,3.1-1.6,4.8-1.3c3.9,0.8,6.9,5.7,8,7.7l0.4,0.7C193.2,109,195.7,113.4,194.3,117.4
					 M176.9,104.6c-0.7,2,0.1,4.3,2.3,7.9c2.3,3.6,5,7.4,7.8,7.7c1.3,0.2,2.5-0.4,3.9-1.6c3.2-3,1.3-7.2-1-11.3l-0.4-0.7
					c-0.7-1.4-3.4-6-6.5-6.6c-1-0.2-2,0.1-3,0.9C178.4,102.2,177.3,103.4,176.9,104.6"/>
				<polygon class="st3" points="222,153.4 211.6,157.7 187.1,122.3 188.9,121 212.4,155 218.6,152.4 193.3,117.5 195,116.2 				"/>
				<path class="st4" d="M216.8,89.8c0,0,66.1-39,66.9-39.1c0.8-0.1,2.5,3.8,1.1,6c-1.3,2.2-64.7,37.6-64.7,37.6"/>
				<path class="st3" d="M286.1,56.5c-0.1,0.3-0.2,0.5-0.4,0.8c-1.4,2.2-50.2,29.6-65.1,38l-1.1-1.9c24.8-13.9,62.5-35.3,64.4-37.3
					c0.6-1.1,0.1-3.3-0.4-4.1c-4.6,2.5-48.9,28.6-66.2,38.8l-1.1-1.9c66.3-39,67-39.2,67.2-39.2c0.4-0.1,1.1,0,1.7,0.9
					C286,51.7,286.9,54.4,286.1,56.5"/>
				<path class="st3" d="M224.6,110.5c-0.8,2.3-2.4,4-4.7,5.3c-10.3,5.5-25.7,0.9-26.3,0.7l0.6-2.1c0.1,0,15.2,4.5,24.7-0.6
					c2.3-1.2,3.6-2.9,4-5.3c1.2-6.1-3.8-14.4-6.3-17.3c-3.3-3.9-10.6-8.8-15.2-7.6l-0.9,0.2c-2.7,0.7-5.1,1.3-8.3,8.5
					c-3.6,8.3-4,9.4-4.1,9.4l-2-0.8c0,0,0.4-1,4.1-9.5c3.6-8.2,6.7-9,9.7-9.8l0.9-0.2c5.7-1.6,13.8,4,17.4,8.3
					c2.8,3.3,8.1,12.2,6.8,19.1C225,109.5,224.8,110,224.6,110.5"/>
				
					<rect x="156.5" y="110.7" transform="matrix(0.9977 -6.763913e-002 6.763913e-002 0.9977 -7.1854 11.3725)" class="st3" width="15.7" height="2.2"/>
				<polygon class="st3" points="174.6,116.8 164.4,120.6 163.7,118.5 173.8,114.7 				"/>
				
					<rect x="167.1" y="123" transform="matrix(0.7106 -0.7036 0.7036 0.7106 -37.4088 157.292)" class="st3" width="10.9" height="2.2"/>
				
					<rect x="191.9" y="93.3" transform="matrix(0.591 -0.8066 0.8066 0.591 4.8209 198.2533)" class="st3" width="12" height="2.2"/>
				<path class="st3" d="M208.5,97.5c-0.3,0.2-8.3,5.2-10.4,6.1l-0.9-2c2-0.9,10.1-5.9,10.2-6L208.5,97.5z"/>
				<polygon class="st3" points="211.5,106.2 200.6,108.6 200.1,106.5 211.1,104.1 				"/>
			</g>
		</g>
	</g>
</g>
<g id="Layer_5">
</g>
<g id="Layer_3">
</g>
<g id="Layer_2">
</g>
<g id="Layer_4">
</g>
</svg>
