<?xml version="1.0" encoding="utf-8"?>
<!-- Generator: Adobe Illustrator 19.2.1, SVG Export Plug-In . SVG Version: 6.00 Build 0)  -->
<svg version="1.1" xmlns="http://www.w3.org/2000/svg" xmlns:xlink="http://www.w3.org/1999/xlink" x="0px" y="0px"
	 viewBox="0 0 350.8 231.3" style="enable-background:new 0 0 350.8 231.3;" xml:space="preserve">
<style type="text/css">
	.st0{fill:#1D439B;}
	.st1{fill:#1791FF;}
	.st2{fill:none;stroke:#FFFFFF;stroke-width:2.8346;stroke-linejoin:round;stroke-miterlimit:10;}
	.st3{fill:#1D47A8;}
	.st4{clip-path:url(#SVGID_4_);}
	.st5{fill:#FFFFFF;}
	.st6{fill:none;stroke:#FFFFFF;stroke-width:2.8346;stroke-miterlimit:10;}
	.st7{fill:none;stroke:#FFFFFF;stroke-width:3;stroke-linejoin:round;stroke-miterlimit:10;}
	.st8{fill:#8E9090;}
	.st9{fill:#FFAEF4;}
	.st10{fill:#FFF276;}
	.st11{fill:#1D47A8;stroke:#1D47A8;stroke-width:1.4173;stroke-miterlimit:10;}
	.st12{fill:#8EC8FE;stroke:#1D47A8;stroke-width:2.8346;stroke-miterlimit:10;}
	.st13{fill:#FFFFFF;stroke:#1D47A8;stroke-width:2.8346;stroke-miterlimit:10;}
	.st14{clip-path:url(#SVGID_10_);fill:#FFF276;}
	.st15{fill:#8EC8FE;}
	.st16{clip-path:url(#SVGID_12_);fill:#FFF276;}
	.st17{fill:none;stroke:#1D47A8;stroke-width:3;stroke-linecap:round;stroke-miterlimit:10;}
	.st18{clip-path:url(#SVGID_16_);fill:#1791FF;}
	.st19{clip-path:url(#SVGID_16_);}
	.st20{fill:#8E9090;stroke:#FFFFFF;stroke-miterlimit:10;}
	.st21{clip-path:url(#SVGID_18_);fill:#1791FF;}
	.st22{clip-path:url(#SVGID_20_);fill:#1791FF;}
	.st23{clip-path:url(#SVGID_20_);}
	.st24{clip-path:url(#SVGID_22_);}
	.st25{fill:none;stroke:#8E9090;stroke-width:2.8346;stroke-miterlimit:10;}
	.st26{clip-path:url(#SVGID_24_);}
	.st27{fill:none;stroke:#8E9090;stroke-width:3;stroke-miterlimit:10;}
	.st28{clip-path:url(#SVGID_26_);}
	.st29{clip-path:url(#SVGID_30_);}
</style>
<g id="Kujundus">
	<g>
		<defs>
			<rect id="SVGID_17_" x="0" width="350.8" height="231.3"/>
		</defs>
		<clipPath id="SVGID_2_">
			<use xlink:href="#SVGID_17_"  style="overflow:visible;"/>
		</clipPath>
		<circle style="clip-path:url(#SVGID_2_);fill:#1791FF;" cx="173.7" cy="111.8" r="100.8"/>
	</g>
	<g>
		<defs>
			<rect id="SVGID_29_" x="0" width="350.8" height="231.3"/>
		</defs>
		<clipPath id="SVGID_4_">
			<use xlink:href="#SVGID_29_"  style="overflow:visible;"/>
		</clipPath>
		<g class="st4">
			<g>
				<polygon class="st5" points="324.7,138 312.7,106.7 301.4,77.1 279.3,19.2 44.5,73.7 55.4,195.9 57.1,207.7 285.9,148.1 				"/>
				<path class="st8" d="M325.8,137.6l-0.7,1.4L57.4,208.7l-1.3-0.9L54.3,196l-11-122.2l0.8-1.2L279,18.1l1.3,0.7L325.8,137.6z
					 M58,206.3l265.3-69.1L278.6,20.5l-233,54.1l10.9,121.2L58,206.3z"/>
				<polygon class="st20" points="306.5,125.5 69.7,185.9 59.8,87.2 49.3,79.4 50.6,77.7 61.8,86 71.6,183.2 305.9,123.4 				"/>
				<polygon class="st20" points="271.6,37.8 271,38 61.1,87.6 60.6,85.5 270,36 274.7,24.2 276.7,24.9 				"/>
				<polygon class="st20" points="315.4,131.1 314,132.8 305.2,124.8 269.8,37.3 271.8,36.5 307.1,123.8 				"/>
				
					<rect x="298.8" y="15.4" transform="matrix(0.9344 -0.3561 0.3561 0.9344 -6.3791 111.5926)" class="st8" width="2.2" height="115.5"/>
				
					<rect x="52.7" y="171.8" transform="matrix(0.9677 -0.2519 0.2519 0.9677 -37.3858 53.6785)" class="st8" width="276.5" height="2.2"/>
				<polygon class="st20" points="72,185.4 63.7,196.3 62,195 70.3,184.1 				"/>
			</g>
		</g>
		<g class="st4">
			<path class="st8" d="M86,101.8l-2.5,0.6l-0.9-6l-2.2,5l-0.3,0.1l-3.5-3.7l0.9,6l-2.5,0.6l-1.5-10.3l2.5-0.6l3.7,3.8l2.3-5.2
				l2.5-0.6L86,101.8z"/>
			<path class="st8" d="M85.7,92.3c-0.1-0.7,0.4-1.5,1.2-1.6c0.8-0.2,1.5,0.3,1.6,1c0.1,0.7-0.4,1.5-1.2,1.6
				C86.6,93.4,85.8,93,85.7,92.3z M86.3,94.2l2.3-0.6l1.2,7.3l-2.4,0.6L86.3,94.2z"/>
			<path class="st8" d="M89.5,90l2.3-0.5l1.8,10.6l-2.4,0.6L89.5,90z"/>
			<path class="st8" d="M93.2,89.1l2.3-0.5l1.8,10.6L95,99.7L93.2,89.1z"/>
			<path class="st8" d="M105.5,89.6l1.3,7.2l-2.3,0.6l-0.1-0.7c-0.4,0.7-1.1,1.2-2.2,1.4c-2,0.5-4-0.8-4.4-3c-0.4-2.2,1-4.2,3-4.7
				c1-0.2,1.9-0.1,2.5,0.3l-0.1-0.7L105.5,89.6z M103.8,93.8c-0.2-1.1-1.1-1.6-2.2-1.3c-1.1,0.3-1.7,1.1-1.5,2.2
				c0.2,1.1,1.1,1.6,2.2,1.3C103.4,95.8,104,94.9,103.8,93.8z"/>
			<path class="st8" d="M106.3,86l2.3-0.5l1.9,10.5l-2.3,0.6L106.3,86z"/>
			<path class="st8" d="M114.4,91.3c-0.4-2.1,1.1-4.2,3.3-4.7c2.2-0.5,4.4,0.7,4.8,2.8c0.4,2.1-1.1,4.2-3.3,4.8
				C117,94.7,114.9,93.4,114.4,91.3z M120.3,89.9c-0.2-1-1.1-1.5-2.1-1.3c-1,0.2-1.6,1.1-1.4,2.1c0.2,1,1.1,1.5,2.1,1.3
				C119.8,91.8,120.5,90.9,120.3,89.9z"/>
			<path class="st8" d="M122.2,82.3l2.3-0.5l2.1,10.4l-2.3,0.5L122.2,82.3z"/>
			<path class="st8" d="M125.9,82.9c-0.1-0.7,0.4-1.4,1.1-1.6c0.7-0.2,1.5,0.3,1.6,0.9c0.1,0.7-0.4,1.4-1.1,1.6
				C126.8,84,126.1,83.5,125.9,82.9z M126.5,84.7l2.3-0.5l1.5,7.1l-2.3,0.5L126.5,84.7z"/>
			<path class="st8" d="M141.5,86.3l0.5,2.2l-6.7,1.6l-2.1-9.9l6.5-1.5l0.5,2.2l-4.1,1l0.3,1.6l3.8-0.9l0.5,2.1l-3.8,0.9l0.4,1.8
				L141.5,86.3z"/>
			<path class="st8" d="M146.4,85.7c0.6-0.1,1.1-0.5,1.3-0.9l2,0.5c-0.5,1.1-1.5,1.9-3,2.2c-2.6,0.6-4.5-0.6-5-2.8
				c-0.5-2.1,0.8-4.1,3.2-4.7c2.2-0.5,4.2,0.7,4.6,2.8c0.1,0.3,0.1,0.6,0.1,0.9l-5.3,1.3C144.8,85.8,145.6,85.9,146.4,85.7z
				 M147.2,82.8c-0.4-0.8-1.2-0.9-1.8-0.7c-0.9,0.2-1.3,0.7-1.4,1.5L147.2,82.8z"/>
			<path class="st8" d="M156.7,82.8c0.4,1.6-1,2.7-2.6,3.1c-1.5,0.4-2.8,0.1-3.6-0.9l1.7-1.5c0.3,0.5,0.8,0.7,1.5,0.5
				c0.5-0.1,0.8-0.3,0.7-0.6c-0.2-0.8-3.8,0.5-4.3-1.9c-0.3-1.5,0.9-2.6,2.4-3c1.2-0.3,2.4,0,3.2,0.8l-1.7,1.4
				c-0.3-0.3-0.6-0.5-1.1-0.4c-0.4,0.1-0.6,0.3-0.5,0.5C152.6,81.6,156.1,80.2,156.7,82.8z"/>
			<path class="st8" d="M159.8,79l0.6,2.5c0.1,0.6,0.7,0.5,1.7,0.2l0.5,1.9c-2.9,1-3.9,0.3-4.4-1.6l-0.6-2.5l-1.2,0.3l-0.5-2
				l1.2-0.3l-0.3-1.3l2.1-1.1l0.5,1.9l1.5-0.4l0.5,2L159.8,79z"/>
			<path class="st8" d="M161.3,74.6c-0.2-0.7,0.3-1.4,1-1.6c0.7-0.2,1.5,0.3,1.6,0.9c0.2,0.7-0.3,1.4-1,1.6
				C162.2,75.7,161.4,75.3,161.3,74.6z M161.9,76.4l2.2-0.5l1.7,7l-2.2,0.5L161.9,76.4z"/>
			<path class="st8" d="M173.9,79.1c0.6-0.1,1.1-0.5,1.3-0.9l2,0.5c-0.5,1.1-1.5,1.9-2.9,2.2c-2.5,0.6-4.5-0.6-5-2.7
				c-0.5-2.1,0.7-4,3-4.6c2.1-0.5,4.1,0.7,4.6,2.8c0.1,0.3,0.1,0.6,0.1,0.9l-5.2,1.2C172.4,79.2,173.1,79.3,173.9,79.1z M174.7,76.3
				c-0.4-0.7-1.2-0.9-1.8-0.7c-0.8,0.2-1.3,0.7-1.3,1.5L174.7,76.3z"/>
			<path class="st8" d="M184,76.3c0.4,1.6-0.9,2.6-2.5,3c-1.5,0.3-2.7,0.1-3.6-0.9l1.6-1.5c0.3,0.5,0.8,0.7,1.5,0.5
				c0.5-0.1,0.8-0.3,0.7-0.6c-0.2-0.8-3.7,0.5-4.3-1.9c-0.4-1.5,0.8-2.6,2.3-2.9c1.2-0.3,2.4,0,3.2,0.8l-1.6,1.4
				c-0.3-0.3-0.7-0.5-1.1-0.4c-0.4,0.1-0.6,0.3-0.5,0.5C179.9,75.1,183.4,73.7,184,76.3z"/>
			<path class="st8" d="M183,69.5c-0.2-0.7,0.3-1.4,1-1.5c0.7-0.2,1.5,0.3,1.6,0.9c0.2,0.7-0.3,1.4-1,1.5
				C183.9,70.6,183.2,70.2,183,69.5z M183.7,71.3l2.2-0.5l1.8,6.9l-2.2,0.5L183.7,71.3z"/>
			<path class="st8" d="M198.7,70.5l1.2,4.2l-2.2,0.5l-1.1-4c-0.2-0.7-0.7-1-1.3-0.9c-0.7,0.2-1,0.7-0.8,1.6l1,3.9l-2.2,0.5l-1.1-4
				c-0.2-0.7-0.6-1-1.3-0.9c-0.7,0.2-1,0.7-0.8,1.6l1,3.9l-2.2,0.5l-1.8-6.9l2.2-0.5l0.2,0.6c0.2-0.5,0.8-1,1.7-1.3
				c0.9-0.2,1.6,0,2.1,0.5c0.3-0.6,0.8-1.2,1.9-1.4C196.9,68,198.3,68.8,198.7,70.5z"/>
			<path class="st8" d="M204.3,71.9c0.6-0.1,1-0.5,1.2-0.8l2,0.5c-0.4,1.1-1.4,1.8-2.7,2.2c-2.5,0.6-4.4-0.6-5-2.7
				c-0.6-2,0.6-4,2.8-4.5c2.1-0.5,4.1,0.7,4.7,2.7c0.1,0.3,0.1,0.6,0.1,0.8l-5.1,1.2C202.8,72,203.5,72.1,204.3,71.9z M204.9,69.1
				c-0.5-0.7-1.2-0.9-1.8-0.7c-0.8,0.2-1.3,0.7-1.3,1.4L204.9,69.1z"/>
			<path class="st8" d="M214.9,66.7l1.2,4.2l-2.1,0.5l-1.1-3.9c-0.2-0.8-0.9-1.1-1.6-0.9c-0.8,0.2-1.2,0.7-0.9,1.7l1.1,3.7l-2.2,0.5
				l-1.9-6.8l2.1-0.5l0.2,0.6c0.2-0.6,0.9-1.1,1.8-1.3C212.8,64.2,214.3,64.9,214.9,66.7z"/>
			<path class="st8" d="M220.4,68.1c0.6-0.1,1-0.5,1.2-0.8l2,0.5c-0.4,1.1-1.3,1.8-2.7,2.1c-2.4,0.6-4.4-0.6-5-2.6
				c-0.6-2,0.5-3.9,2.7-4.4c2.1-0.5,4,0.7,4.7,2.7c0.1,0.3,0.1,0.6,0.2,0.8l-5,1.2C218.9,68.2,219.6,68.3,220.4,68.1z M221,65.3
				c-0.5-0.7-1.2-0.9-1.8-0.7c-0.8,0.2-1.2,0.7-1.2,1.4L221,65.3z"/>
			<path class="st8" d="M83.7,111.6l1.2,7.6l-2.4,0.6l-0.1-0.7c-0.3,0.7-1.1,1.2-2.2,1.5c-1.6,0.4-3.2-0.4-3.5-2.4l-0.7-4.7l2.4-0.6
				l0.7,4.3c0.1,0.9,0.8,1.2,1.6,1c0.9-0.2,1.4-0.9,1.3-1.9l-0.6-4.1L83.7,111.6z M76.9,111.5c-0.1-0.6,0.4-1.3,1-1.4
				c0.7-0.2,1.3,0.2,1.4,0.8c0.1,0.6-0.4,1.3-1,1.4C77.6,112.5,77,112.1,76.9,111.5z M79.9,110.8c-0.1-0.6,0.4-1.3,1-1.4
				c0.7-0.2,1.3,0.2,1.4,0.8c0.1,0.6-0.4,1.3-1,1.4C80.6,111.8,80,111.4,79.9,110.8z"/>
			<path class="st8" d="M84.6,107.9l2.4-0.6l1.8,11l-2.4,0.6L84.6,107.9z"/>
			<path class="st8" d="M96.6,105.4l1.8,10.5l-2.4,0.6l-0.1-0.7c-0.4,0.7-1.2,1.2-2.2,1.5c-2.1,0.5-4.1-0.8-4.5-3.1
				c-0.4-2.2,1.1-4.4,3.1-4.9c1.1-0.3,1.9-0.1,2.5,0.3l-0.6-3.7L96.6,105.4z M95.4,112.7c-0.2-1.1-1.1-1.6-2.2-1.4
				c-1.1,0.3-1.8,1.2-1.6,2.3c0.2,1.1,1.1,1.6,2.2,1.4C94.9,114.8,95.6,113.9,95.4,112.7z"/>
			<path class="st8" d="M97.9,104.6l2.4-0.6l1.9,10.9l-2.4,0.6L97.9,104.6z"/>
			<path class="st8" d="M110.4,105.2l1.4,7.4l-2.4,0.6l-0.1-0.7c-0.4,0.7-1.1,1.2-2.2,1.5c-2.1,0.5-4.1-0.8-4.5-3
				c-0.4-2.2,1-4.3,3.1-4.8c1.1-0.3,1.9-0.1,2.5,0.3l-0.1-0.7L110.4,105.2z M108.7,109.5c-0.2-1.1-1.1-1.6-2.2-1.4
				c-1.1,0.3-1.7,1.2-1.5,2.3c0.2,1.1,1.1,1.6,2.2,1.4C108.2,111.5,108.9,110.6,108.7,109.5z"/>
			<path class="st8" d="M119.2,103.1l1.4,7.4l-2.3,0.6l-0.1-0.7c-0.3,0.7-1,1.2-2.1,1.5c-1.6,0.4-3.1-0.4-3.5-2.4l-0.8-4.6l2.3-0.6
				l0.8,4.2c0.2,0.9,0.9,1.2,1.6,1c0.9-0.2,1.4-0.8,1.2-1.9l-0.8-4L119.2,103.1z"/>
			<path class="st8" d="M119.9,99.4l2.3-0.6l2.1,10.8l-2.3,0.6L119.9,99.4z"/>
			<path class="st8" d="M131.6,100.1l1.5,7.4l-2.3,0.6l-0.1-0.7c-0.3,0.7-1,1.2-2,1.4c-1.6,0.4-3.1-0.4-3.5-2.4l-0.9-4.5l2.3-0.6
				l0.8,4.2c0.2,0.9,0.9,1.2,1.6,1c0.9-0.2,1.3-0.8,1.1-1.9l-0.8-4L131.6,100.1z"/>
			<path class="st8" d="M142,101.4c0.5,2.2-0.8,4.3-2.9,4.8c-1,0.3-1.9,0.1-2.5-0.3l0.8,3.7l-2.3,0.6L133,99.7l2.3-0.6l0.1,0.7
				c0.4-0.7,1.1-1.2,2.1-1.4C139.5,98,141.5,99.2,142,101.4z M139.7,102c-0.2-1.1-1.1-1.6-2.2-1.3c-1.1,0.3-1.7,1.1-1.5,2.2
				c0.2,1.1,1.1,1.6,2.2,1.3C139.3,103.9,139.9,103.1,139.7,102z"/>
			<path class="st8" d="M141.6,95.6c-0.2-0.7,0.3-1.4,1.1-1.6c0.7-0.2,1.5,0.3,1.6,1c0.2,0.7-0.3,1.5-1.1,1.6
				C142.5,96.8,141.7,96.3,141.6,95.6z M142.2,97.5l2.3-0.6l1.6,7.3l-2.3,0.6L142.2,97.5z"/>
			<path class="st8" d="M153,91.9l2.3,10.1l-2.3,0.6l-0.2-0.7c-0.4,0.7-1.1,1.2-2.1,1.4c-2,0.5-4-0.8-4.5-3
				c-0.5-2.2,0.8-4.2,2.8-4.7c1-0.2,1.8-0.1,2.5,0.3l-0.8-3.6L153,91.9z M152.2,98.9c-0.2-1.1-1.2-1.6-2.2-1.3
				c-1,0.3-1.7,1.1-1.4,2.2c0.2,1.1,1.2,1.6,2.2,1.3C151.9,100.9,152.5,100,152.2,98.9z"/>
			<path class="st8" d="M162.2,92.7l1.7,7.2l-2.3,0.6l-0.2-0.7c-0.3,0.6-1,1.2-2,1.4c-1.5,0.4-3.1-0.4-3.5-2.3l-1-4.4l2.3-0.5
				l0.9,4.1c0.2,0.9,0.9,1.2,1.6,1c0.8-0.2,1.3-0.8,1.1-1.8l-0.9-3.9L162.2,92.7z"/>
			<path class="st8" d="M168,91.3c-0.1-0.5-0.5-0.7-1.3-0.6c-0.8,0.2-1.2,0.8-1.3,1.6l-2.3-0.6c0.3-1.6,1.6-2.8,3.2-3.2
				c1.7-0.4,3.6,0.2,4.1,2c0.5,2.1-1.7,3.4-1.5,4.4l-2.4,0.6C166,93.8,168.3,92.6,168,91.3z M166.8,98c-0.2-0.8,0.3-1.5,1.1-1.7
				c0.8-0.2,1.6,0.3,1.8,1c0.2,0.8-0.3,1.5-1.1,1.7C167.8,99.2,167,98.7,166.8,98z"/>
			<path class="st8" d="M93.9,151.2l-2.6,0.7l-1-6.5l-2.2,5.5l-0.3,0.1l-3.7-4l1,6.6l-2.7,0.7l-1.7-11.3l2.6-0.7l3.9,4.2l2.3-5.7
				l2.6-0.7L93.9,151.2z"/>
			<path class="st8" d="M93.6,140.7c-0.1-0.8,0.4-1.6,1.2-1.8c0.8-0.2,1.6,0.3,1.7,1.1c0.1,0.8-0.4,1.6-1.2,1.8
				C94.5,142,93.7,141.5,93.6,140.7z M94.2,142.8l2.4-0.6l1.3,8l-2.5,0.6L94.2,142.8z"/>
			<path class="st8" d="M105.4,145.7c0.3,1.8-1.2,3-2.9,3.5c-1.6,0.4-3,0.1-3.8-1l1.9-1.7c0.3,0.6,0.8,0.8,1.5,0.6
				c0.6-0.2,0.9-0.4,0.8-0.7c-0.1-0.9-4.1,0.6-4.5-2.1c-0.3-1.7,1.1-3,2.8-3.4c1.3-0.3,2.6-0.1,3.5,0.9l-1.9,1.6
				c-0.3-0.4-0.7-0.6-1.2-0.4c-0.4,0.1-0.7,0.3-0.6,0.6C101,144.4,104.9,142.8,105.4,145.7z"/>
			<path class="st8" d="M109.4,143c-0.4-2.4,1.2-4.7,3.5-5.3c2.4-0.6,4.6,0.7,5,3.1c0.4,2.4-1.1,4.7-3.5,5.3
				C112.1,146.7,109.8,145.4,109.4,143z M115.6,141.5c-0.2-1.1-1.1-1.7-2.2-1.4c-1,0.3-1.7,1.2-1.5,2.3c0.2,1.1,1.1,1.7,2.2,1.4
				C115.1,143.5,115.8,142.6,115.6,141.5z"/>
			<path class="st8" d="M126.6,137.7l0.9,4.8l-2.4,0.6l-0.9-4.5c-0.2-1-0.9-1.3-1.7-1.1c-0.9,0.2-1.4,0.9-1.2,2l0.8,4.3l-2.4,0.6
				l-1.5-7.9l2.4-0.6l0.1,0.7c0.3-0.7,1.1-1.3,2.1-1.5C124.6,134.8,126.2,135.6,126.6,137.7z"/>
			<path class="st8" d="M139.2,137l0.5,2.4l-7,1.8l-2.2-10.9l6.9-1.7l0.5,2.4l-4.4,1.1l0.4,1.8l4-1l0.5,2.4l-4,1l0.4,1.9L139.2,137z
				"/>
			<path class="st8" d="M144.3,136.2c0.6-0.2,1.1-0.6,1.4-1l2.1,0.6c-0.5,1.3-1.6,2.1-3.1,2.5c-2.7,0.7-4.8-0.7-5.2-3
				c-0.5-2.3,0.9-4.5,3.4-5.2c2.3-0.6,4.4,0.7,4.9,3.1c0.1,0.3,0.1,0.6,0.1,1l-5.6,1.4C142.7,136.4,143.5,136.5,144.3,136.2z
				 M145.2,133c-0.4-0.8-1.2-1-1.9-0.8c-0.9,0.2-1.4,0.8-1.5,1.7L145.2,133z"/>
			<path class="st8" d="M155.2,133c0.4,1.8-1,2.9-2.7,3.4c-1.6,0.4-2.9,0.1-3.8-1l1.8-1.7c0.3,0.5,0.8,0.8,1.5,0.6
				c0.6-0.1,0.8-0.4,0.7-0.7c-0.2-0.9-4,0.6-4.5-2.1c-0.4-1.7,0.9-2.9,2.5-3.3c1.3-0.3,2.5-0.1,3.4,0.9l-1.8,1.6
				c-0.3-0.3-0.7-0.5-1.2-0.4c-0.4,0.1-0.6,0.3-0.6,0.6C150.8,131.7,154.5,130.1,155.2,133z"/>
			<path class="st8" d="M158.4,128.8l0.6,2.7c0.1,0.7,0.7,0.6,1.8,0.3l0.5,2.1c-3,1.1-4.1,0.4-4.6-1.8l-0.6-2.7l-1.3,0.3l-0.5-2.2
				l1.2-0.3l-0.3-1.5l2.2-1.3l0.5,2.1l1.6-0.4l0.5,2.2L158.4,128.8z"/>
			<path class="st8" d="M160,123.9c-0.2-0.7,0.3-1.5,1.1-1.7c0.8-0.2,1.5,0.3,1.7,1c0.2,0.7-0.3,1.5-1.1,1.7
				C160.9,125.1,160.2,124.7,160,123.9z M160.7,125.9l2.3-0.6l1.8,7.7l-2.3,0.6L160.7,125.9z"/>
			<path class="st8" d="M177.2,125.7c0.5,2.3-0.7,4.5-2.7,5c-1,0.3-1.9,0.1-2.5-0.3l0.9,3.8l-2.3,0.6L168,124l2.3-0.6l0.2,0.7
				c0.4-0.7,1-1.2,2.1-1.5C174.6,122.1,176.6,123.5,177.2,125.7z M174.9,126.3c-0.3-1.1-1.2-1.7-2.3-1.4c-1.1,0.3-1.7,1.2-1.4,2.3
				c0.3,1.1,1.2,1.7,2.3,1.4C174.5,128.4,175.1,127.5,174.9,126.3z"/>
			<path class="st8" d="M181.8,120.4l0.6,2.6c-1,0.1-2.2,0.8-1.9,2.3l0.8,3.4l-2.3,0.6l-1.8-7.6l2.3-0.6l0.3,1.3
				C180,121.3,180.9,120.6,181.8,120.4z"/>
			<path class="st8" d="M188,125.1c0.6-0.2,1.1-0.5,1.3-1l2.1,0.6c-0.5,1.2-1.5,2-2.9,2.4c-2.6,0.7-4.7-0.7-5.2-2.9
				c-0.6-2.3,0.7-4.4,3.1-5c2.2-0.6,4.3,0.7,4.9,3c0.1,0.3,0.1,0.6,0.1,0.9l-5.4,1.4C186.3,125.2,187.1,125.3,188,125.1z M188.7,122
				c-0.5-0.8-1.2-1-1.9-0.8c-0.9,0.2-1.3,0.8-1.4,1.6L188.7,122z"/>
			<path class="st8" d="M198.4,121.9c0.5,1.7-0.9,2.9-2.5,3.3c-1.5,0.4-2.8,0.1-3.7-1l1.7-1.6c0.3,0.5,0.9,0.7,1.5,0.6
				c0.5-0.1,0.8-0.4,0.7-0.7c-0.2-0.8-3.8,0.6-4.5-2c-0.4-1.6,0.8-2.8,2.3-3.2c1.2-0.3,2.5,0,3.4,0.9l-1.7,1.5
				c-0.3-0.3-0.7-0.5-1.2-0.4c-0.4,0.1-0.6,0.3-0.5,0.6C194.1,120.6,197.7,119.1,198.4,121.9z"/>
			<path class="st8" d="M197.2,114.5c-0.2-0.7,0.3-1.5,1-1.7c0.7-0.2,1.5,0.3,1.7,1c0.2,0.7-0.3,1.5-1,1.7
				C198.2,115.7,197.4,115.2,197.2,114.5z M198,116.4l2.3-0.6l2,7.5l-2.3,0.6L198,116.4z"/>
			<path class="st8" d="M208.5,110.6l2.8,10.4l-2.3,0.6l-0.2-0.7c-0.3,0.7-1,1.2-2,1.5c-2,0.5-4.1-0.8-4.7-3
				c-0.6-2.2,0.6-4.4,2.5-4.9c1-0.3,1.8-0.1,2.5,0.3l-1-3.7L208.5,110.6z M208.1,117.8c-0.3-1.1-1.2-1.6-2.3-1.4
				c-1,0.3-1.6,1.2-1.3,2.3c0.3,1.1,1.2,1.6,2.3,1.4C207.8,119.9,208.4,119,208.1,117.8z"/>
			<path class="st8" d="M216,117.9c0.6-0.2,1.1-0.5,1.3-0.9l2.1,0.6c-0.4,1.2-1.4,2-2.8,2.4c-2.6,0.7-4.6-0.7-5.2-2.9
				c-0.6-2.2,0.5-4.3,2.9-4.9c2.2-0.6,4.2,0.7,4.9,2.9c0.1,0.3,0.1,0.6,0.2,0.9l-5.3,1.4C214.4,118,215.2,118.1,216,117.9z
				 M216.6,114.8c-0.5-0.8-1.2-0.9-1.9-0.8c-0.9,0.2-1.3,0.8-1.3,1.6L216.6,114.8z"/>
			<path class="st8" d="M225.8,106.2l3,10.3l-2.2,0.6l-0.2-0.7c-0.3,0.7-1,1.2-2,1.5c-2,0.5-4.1-0.8-4.7-3c-0.6-2.2,0.5-4.3,2.4-4.8
				c1-0.3,1.8-0.1,2.5,0.3l-1-3.6L225.8,106.2z M225.5,113.4c-0.3-1.1-1.3-1.6-2.3-1.3c-1,0.3-1.6,1.1-1.3,2.3
				c0.3,1.1,1.3,1.6,2.3,1.4C225.2,115.4,225.8,114.5,225.5,113.4z"/>
			<path class="st8" d="M227.2,106.9c-0.2-0.7,0.2-1.5,0.9-1.6c0.7-0.2,1.5,0.3,1.7,1c0.2,0.7-0.2,1.5-0.9,1.6
				C228.1,108.1,227.4,107.6,227.2,106.9z M228,108.8l2.2-0.6l2.2,7.4l-2.2,0.6L228,108.8z"/>
			<path class="st8" d="M92,160.1l1.3,8.3l-2.5,0.7l-0.1-0.8c-0.5,0.8-1.2,1.4-2.3,1.7c-2.2,0.6-4.3-0.9-4.7-3.3
				c-0.4-2.5,1.1-4.8,3.3-5.4c1.1-0.3,2-0.1,2.6,0.4l-0.1-0.8L92,160.1z M90.2,164.9c-0.2-1.2-1.1-1.8-2.3-1.5
				c-1.2,0.3-1.9,1.3-1.7,2.5c0.2,1.2,1.1,1.8,2.3,1.5C89.7,167.1,90.4,166.1,90.2,164.9z"/>
			<path class="st8" d="M106.5,159.7l0.9,5l-2.5,0.7l-0.8-4.8c-0.1-0.8-0.6-1.2-1.4-1c-0.8,0.2-1.2,0.9-1,1.9l0.8,4.6l-2.5,0.7
				l-0.8-4.9c-0.1-0.8-0.6-1.2-1.4-1c-0.8,0.2-1.2,0.9-1,1.9l0.8,4.7l-2.5,0.7l-1.3-8.3l2.5-0.6l0.1,0.8c0.3-0.7,0.9-1.3,2.1-1.6
				c1-0.3,1.8-0.1,2.3,0.5c0.4-0.8,1-1.4,2.2-1.7C104.7,156.6,106.1,157.6,106.5,159.7z"/>
			<path class="st8" d="M112.6,161.3c0.7-0.2,1.2-0.6,1.5-1l2.2,0.6c-0.6,1.3-1.7,2.2-3.3,2.6c-2.8,0.7-4.9-0.7-5.3-3.1
				c-0.4-2.4,1-4.8,3.6-5.4c2.4-0.6,4.5,0.8,4.9,3.2c0.1,0.3,0.1,0.7,0.1,1l-5.8,1.5C110.8,161.4,111.7,161.5,112.6,161.3z
				 M113.5,157.9c-0.4-0.9-1.2-1-2-0.8c-0.9,0.2-1.5,0.9-1.6,1.8L113.5,157.9z"/>
			<path class="st8" d="M120,155.3l0.5,2.9c0.1,0.7,0.7,0.6,1.8,0.3l0.4,2.2c-3.1,1.2-4.3,0.5-4.7-1.8l-0.5-2.9l-1.3,0.3l-0.4-2.3
				l1.3-0.3l-0.3-1.5l2.3-1.4l0.4,2.3l1.7-0.4l0.4,2.3L120,155.3z"/>
			<path class="st8" d="M121.8,150.1c-0.1-0.8,0.4-1.6,1.2-1.8c0.8-0.2,1.6,0.3,1.7,1.1c0.1,0.8-0.4,1.6-1.2,1.8
				C122.8,151.4,122,150.9,121.8,150.1z M122.5,152.2l2.4-0.6l1.5,8.1l-2.4,0.6L122.5,152.2z"/>
			<path class="st8" d="M134.7,149l1.6,8l-2.4,0.6l-0.1-0.8c-0.4,0.8-1.1,1.3-2.2,1.6c-2.1,0.6-4.2-0.8-4.7-3.3
				c-0.5-2.4,0.9-4.7,3.1-5.3c1.1-0.3,1.9-0.1,2.6,0.4l-0.1-0.8L134.7,149z M133,153.7c-0.2-1.2-1.2-1.8-2.3-1.5
				c-1.1,0.3-1.8,1.3-1.5,2.5c0.2,1.2,1.2,1.8,2.3,1.5C132.6,155.9,133.3,154.9,133,153.7z"/>
			<path class="st8" d="M143.7,146.7l1.7,8l-2.4,0.6l-0.2-0.8c-0.3,0.7-1,1.3-2.1,1.6c-1.6,0.4-3.3-0.4-3.7-2.5l-1-4.9l2.4-0.6
				l0.9,4.6c0.2,1,0.9,1.3,1.7,1.1c0.9-0.2,1.4-0.9,1.2-2l-0.9-4.4L143.7,146.7z"/>
			<path class="st8" d="M148.7,147.8l0.6,2.8c0.1,0.7,0.8,0.6,1.8,0.3l0.5,2.2c-3.1,1.1-4.2,0.4-4.7-1.8l-0.6-2.8l-1.3,0.3l-0.5-2.3
				l1.3-0.3l-0.3-1.5l2.2-1.3l0.5,2.2l1.6-0.4l0.5,2.3L148.7,147.8z"/>
			<path class="st8" d="M151.5,148.9c-0.5-2.4,1-4.7,3.3-5.3c2.3-0.6,4.6,0.7,5.1,3.1c0.5,2.4-0.9,4.7-3.3,5.3
				C154.3,152.6,152,151.2,151.5,148.9z M157.5,147.3c-0.2-1.1-1.2-1.7-2.2-1.4c-1,0.3-1.7,1.2-1.4,2.4c0.2,1.1,1.2,1.7,2.2,1.4
				C157.1,149.4,157.8,148.4,157.5,147.3z"/>
			<path class="st8" d="M171.9,142.5l1.1,4.8l-2.4,0.6l-1-4.5c-0.2-1-0.9-1.3-1.7-1.1c-0.9,0.2-1.3,0.9-1.1,2l1,4.3l-2.4,0.6
				l-1.8-7.9l2.4-0.6l0.2,0.7c0.3-0.7,1-1.3,2-1.5C169.8,139.7,171.4,140.4,171.9,142.5z"/>
			<path class="st8" d="M179.9,137.3l1.9,7.8l-2.3,0.6l-0.2-0.7c-0.3,0.7-1,1.3-2,1.6c-1.6,0.4-3.2-0.4-3.7-2.5l-1.1-4.8l2.3-0.6
				l1.1,4.5c0.2,1,1,1.3,1.7,1.1c0.9-0.2,1.3-0.9,1.1-2l-1-4.3L179.9,137.3z"/>
			<path class="st8" d="M193.7,136.9l1.2,4.8l-2.3,0.6l-1.2-4.6c-0.2-0.8-0.7-1.2-1.4-1c-0.8,0.2-1.1,0.9-0.8,1.8l1.1,4.4l-2.3,0.6
				l-1.1-4.6c-0.2-0.8-0.7-1.2-1.4-1c-0.8,0.2-1.1,0.9-0.9,1.8l1.1,4.4l-2.3,0.6l-1.9-7.8l2.3-0.6l0.2,0.7c0.2-0.6,0.8-1.2,1.8-1.5
				c0.9-0.2,1.7,0,2.3,0.5c0.3-0.7,0.9-1.3,2-1.6C191.7,134,193.2,134.9,193.7,136.9z"/>
			<path class="st8" d="M203.5,135.3c0.6,2.3-0.6,4.5-2.6,5.1c-1,0.3-1.9,0.1-2.5-0.3l0.2,0.7l-2.3,0.6l-2.8-10.8l2.3-0.6l1,3.8
				c0.4-0.7,1-1.3,2-1.5C200.7,131.6,202.9,133,203.5,135.3z M201.2,135.9c-0.3-1.2-1.3-1.7-2.3-1.4c-1.1,0.3-1.6,1.2-1.3,2.4
				c0.3,1.2,1.3,1.7,2.3,1.4C200.9,137.9,201.5,137,201.2,135.9z"/>
			<path class="st8" d="M208,129.8l0.7,2.6c-1,0.1-2.2,0.8-1.8,2.4l0.9,3.5l-2.3,0.6l-2-7.7l2.3-0.6l0.4,1.4
				C206.1,130.8,207,130.1,208,129.8z"/>
			<path class="st8" d="M208,127.8c-0.2-0.7,0.3-1.5,1-1.7c0.7-0.2,1.5,0.3,1.7,1c0.2,0.7-0.3,1.5-1,1.7
				C209,129,208.2,128.5,208,127.8z M208.8,129.8l2.3-0.6l2.1,7.7l-2.3,0.6L208.8,129.8z"/>
			<path class="st8" d="M224.6,128.8l1.3,4.7l-2.3,0.6l-1.3-4.5c-0.2-0.8-0.7-1.2-1.4-1c-0.8,0.2-1,0.8-0.8,1.7l1.2,4.3l-2.3,0.6
				l-1.2-4.5c-0.2-0.8-0.7-1.2-1.4-1c-0.8,0.2-1,0.8-0.8,1.7l1.2,4.3l-2.3,0.6l-2.1-7.7l2.3-0.6l0.2,0.7c0.2-0.6,0.8-1.2,1.8-1.4
				c0.9-0.2,1.7,0,2.3,0.5c0.3-0.7,0.8-1.3,1.9-1.6C222.6,125.9,224.1,126.9,224.6,128.8z"/>
			<path class="st8" d="M232.7,123.5l2.2,7.6l-2.3,0.6l-0.2-0.7c-0.3,0.7-1,1.3-2,1.5c-2,0.5-4.1-0.8-4.8-3.1
				c-0.6-2.3,0.5-4.4,2.4-4.9c1-0.3,1.8-0.1,2.5,0.3l-0.2-0.7L232.7,123.5z M225.8,123.5c-0.2-0.6,0.2-1.3,0.8-1.4
				c0.6-0.2,1.3,0.2,1.4,0.8c0.2,0.6-0.2,1.3-0.8,1.4C226.6,124.5,226,124.1,225.8,123.5z M231.6,127.9c-0.3-1.1-1.3-1.7-2.3-1.4
				c-1,0.3-1.6,1.2-1.3,2.3c0.3,1.1,1.3,1.7,2.3,1.4C231.4,130,231.9,129,231.6,127.9z M228.7,122.7c-0.2-0.6,0.2-1.3,0.8-1.4
				c0.6-0.2,1.3,0.2,1.4,0.8c0.2,0.6-0.2,1.3-0.8,1.4C229.5,123.7,228.8,123.3,228.7,122.7z"/>
			<path class="st8" d="M238.5,121.9l0.8,2.6c-1,0.1-2.2,0.8-1.7,2.3l1,3.4l-2.2,0.6l-2.2-7.6l2.2-0.6l0.4,1.3
				C236.7,122.9,237.5,122.1,238.5,121.9z"/>
			<path class="st8" d="M246.2,128.2l-3.4-2.7l1,3.3l-2.2,0.6l-3.1-10.5l2.2-0.6l1.9,6.3l1.2-3.9l2.6-0.7l-1.6,4.4l3.9,3
				L246.2,128.2z"/>
			<path class="st8" d="M251.3,118.7c-0.2-0.5-0.6-0.8-1.4-0.6c-0.8,0.2-1.1,0.9-1.2,1.7l-2.4-0.6c0.2-1.7,1.3-2.9,3-3.4
				c1.7-0.4,3.7,0.2,4.3,2.1c0.7,2.2-1.4,3.5-1.1,4.5l-2.4,0.6C249.5,121.3,251.7,120,251.3,118.7z M250.6,125.7
				c-0.2-0.8,0.2-1.6,1-1.8c0.8-0.2,1.6,0.3,1.8,1.1c0.2,0.8-0.2,1.6-1,1.8C251.7,126.9,250.9,126.4,250.6,125.7z"/>
		</g>
	</g>
</g>
<g id="Layer_5">
</g>
<g id="Layer_3">
</g>
<g id="Layer_2">
</g>
<g id="Layer_4">
</g>
</svg>
