<?xml version="1.0" encoding="utf-8"?>
<!-- Generator: Adobe Illustrator 19.2.1, SVG Export Plug-In . SVG Version: 6.00 Build 0)  -->
<svg version="1.1" id="Layer_1" xmlns="http://www.w3.org/2000/svg" xmlns:xlink="http://www.w3.org/1999/xlink" x="0px" y="0px"
	 viewBox="0 0 350.8 231.3" style="enable-background:new 0 0 350.8 231.3;" xml:space="preserve">
<style type="text/css">
	.st0{clip-path:url(#SVGID_2_);fill:#1791FF;}
	.st1{clip-path:url(#SVGID_4_);}
	.st2{fill:#FFFFFF;}
	.st3{fill:#8E9090;}
</style>
<g id="Kujundus">
	<g>
		<g>
			<defs>
				<rect id="SVGID_1_" y="0" width="350.8" height="231.3"/>
			</defs>
			<clipPath id="SVGID_2_">
				<use xlink:href="#SVGID_1_"  style="overflow:visible;"/>
			</clipPath>
			<circle class="st0" cx="173.7" cy="111.8" r="100.8"/>
		</g>
	</g>
	<g>
		<g>
			<defs>
				<rect id="SVGID_3_" x="0.3" y="0" width="350.8" height="231.3"/>
			</defs>
			<clipPath id="SVGID_4_">
				<use xlink:href="#SVGID_3_"  style="overflow:visible;"/>
			</clipPath>
			<g class="st1">
				<path class="st2" d="M266.2,130.7l35.2-24.5l-47.3-71.8c0,0-6.5-10.6-25.2-1.5c-9.7,4.7-16.1,9.1-16.1,9.1s-2-12.8-9.6-22.7
					c-6.6-8.6-17.6-13.5-17.6-13.5l-93,27.9c-5,15.3-4.2,15.1-4.7,24.5c-0.3,5.5,5.4,21.1,5.4,21.1S69.8,84,60.4,88.7
					C51,93.5,49,102.2,49,102.2l25.5,91.3l59.4-8.9c1.2,4.4,2.8,9.6,4.9,14.4c8.4,19.8,26.2,29.2,26.2,29.2l112.7-43.9
					c0,0,4.2-19.5-0.9-33.6C273.7,142.3,269.3,135.1,266.2,130.7"/>
				<polygon class="st3" points="303.4,106.5 267.2,131.6 266,129.8 300.4,106 254.2,35.9 200.3,71.6 199.1,69.8 254.9,32.9 				"/>
				<polygon class="st3" points="200.7,70.5 198.6,70.9 185.2,7.3 94.5,34.5 117.1,99.2 49.5,103.3 49.4,101.2 114.1,97.2 
					91.7,33.1 92.8,32.7 186.9,4.5 187.1,5.7 				"/>
				<path class="st3" d="M239.4,147.3l-93.3,35.6l-0.4-1l-31.6-84.3l86-28.2l0.4,0.8L239.4,147.3z M147.4,180.1l89-33.9L199.1,72
					L117,98.9L147.4,180.1z"/>
				<path class="st3" d="M280.8,167.7c0,8.9-1.5,16.4-1.6,16.9l-0.1,0.6l-0.5,0.2l-113.1,44.1l-0.4-0.2c-0.7-0.4-18.3-9.8-26.7-29.7
					c-4.9-11.6-7.5-25.3-7.5-25.4l2.1-0.4c0,0.1,2.6,13.7,7.4,25c7.4,17.6,22.5,26.9,25.3,28.4l111.6-43.5c0.6-3.3,3.4-20.1-1-32.5
					c-3.6-10-9.2-18.2-12-22l2.6-0.1c3.1,4.3,8.1,12,11.4,21.3C280.2,155.9,280.8,162.1,280.8,167.7"/>
				<polygon class="st3" points="278.8,183.6 277.3,185.2 237.7,148 148.2,182.1 166.3,227.6 164.3,228.4 145.4,180.9 146.4,180.5 
					238.2,145.5 238.7,145.9 				"/>
				<path class="st3" d="M214.4,42.2l-0.1,0.3l-13.6,28.7l-2-0.9l13.4-28.4c-0.4-2-2.7-13.2-9.3-21.8C196.5,11.8,185.7,7,185.6,7
					l0.9-2c0.5,0.2,11.4,5.1,18,13.8c7.6,9.9,9.7,22.6,9.8,23.1L214.4,42.2z"/>
				<path class="st3" d="M135.9,185.6l-61.7,9.2l-25.9-92.5l0.1-0.3c0.1-0.4,2.2-9.3,12-14.2c9.4-4.7,32.2-9.3,33.2-9.5l0.5-0.1
					l0.4,0.4L115,97.5l-1.5,1.6L93.4,80.6c-3.5,0.7-23.7,5-32.1,9.2c-8,4-10.4,11-10.8,12.5l25.2,90.1l59.8-8.9L135.9,185.6z"/>
				<path class="st3" d="M94.8,79l-2,0.7c-0.2-0.6-5.5-15.1-5.5-21.1c0-0.2,0-0.3,0-0.5c0.1-1.5,0.1-2.7,0.2-3.8
					c0.2-5.9,0.3-7.9,4.6-20.9l2.1,0.7c-4.2,12.7-4.3,14.5-4.5,20.3c0,1.1-0.1,2.4-0.2,3.9c0,0.1,0,0.3,0,0.4
					C89.4,64.3,94.7,78.9,94.8,79"/>
				<path class="st3" d="M255.5,33.9l-1.8,1.1c-0.2-0.4-6.3-9.6-23.8-1.1c-9.5,4.7-15.9,8.9-16,9l-1.2-1.8c0.1,0,6.6-4.4,16.3-9.1
					C248.2,22.6,255.2,33.4,255.5,33.9"/>
				<path class="st3" d="M147.3,180.5l-1,1.9l-14.8-7.9c-2.2,0.2-15.5,1.3-28,4.8c-13.5,3.8-27.7,14.9-27.8,15l-1.3-1.7
					c0.6-0.5,14.6-11.5,28.6-15.4c13.9-3.9,28.6-4.9,28.7-4.9h0.3L147.3,180.5z"/>
				<path class="st3" d="M75.7,192.9l58-8.2l-3-11.3c0,0-23.8,3.2-29.4,5.4C95.7,181,75.7,192.9,75.7,192.9"/>
				<g>
					<g>
						
							<ellipse transform="matrix(0.5948 -0.8039 0.8039 0.5948 -61.3825 189.5758)" class="st3" cx="157.4" cy="155.7" rx="11.7" ry="11.7"/>
					</g>
					<g>
						
							<ellipse transform="matrix(0.5948 -0.8039 0.8039 0.5948 0.812 191.3713)" class="st3" cx="190.2" cy="94.9" rx="11.7" ry="11.7"/>
					</g>
					<g>
						<g>
							<path class="st3" d="M152.9,148.9l4.9-3.3l1.6,2.4l-4.9,3.4C154,150.6,153.5,149.7,152.9,148.9z"/>
						</g>
						<g>
							<path class="st3" d="M139.4,116c0-0.8,0.1-1.6,0.2-2.4l5.9,0.8c-0.2,1.4-0.1,3.1,0.2,5.1l-5.8,1
								C139.5,118.9,139.4,117.4,139.4,116z M141.5,126.8l5.6-1.9c0.6,1.7,1.3,3.5,2.1,5.4l-5.4,2.4
								C142.9,130.6,142.1,128.7,141.5,126.8z M143.8,106.4c1.9-1.2,4.4-1.9,7.3-1.9l0.1,5.9c-1.8,0-3.3,0.4-4.2,1L143.8,106.4z
								 M146.5,138.3l5.2-2.8c0.9,1.7,1.9,3.4,2.9,5.1l-5.1,3.1C148.5,141.8,147.5,140,146.5,138.3z M156.5,111.1l1.3-5.8
								c2.1,0.5,4.2,1.1,6.2,2l-2.3,5.5C160,112,158.2,111.5,156.5,111.1z M166.8,115.3l3.1-5.1c1.9,1.1,3.7,2.4,5.3,3.8l-3.9,4.5
								C169.9,117.3,168.4,116.2,166.8,115.3z M175,122.4l4.7-3.7c1.4,1.7,2.5,3.6,3.5,5.6l-5.3,2.6
								C177.1,125.3,176.1,123.8,175,122.4z M180,132.3l5.6-2c0.7,1.8,1.3,3.6,2.1,4.6l-4.6,3.7C181.6,136.8,180.9,134.6,180,132.3z
								 M190.6,135.9c1.3-0.1,2.9-0.5,4.5-1.4l2.8,5.3c-2.4,1.2-4.8,1.9-7,2L190.6,135.9z M199.3,131.5c1.3-1.2,2.4-2.6,3.2-4.1
								l5.1,3c-1.1,2-2.6,3.8-4.2,5.4L199.3,131.5z M200.6,108.3l4.5-3.8c1.5,1.8,2.7,3.7,3.6,5.8l-5.4,2.4
								C202.6,111.1,201.7,109.7,200.6,108.3z M204.4,122.7l0.2-0.9c0.2-1.4,0.3-2.8,0.1-4.1l5.9-0.7c0.2,1.9,0.2,3.9-0.1,5.8
								c-0.1,0.4-0.1,0.8-0.2,1.2L204.4,122.7z"/>
						</g>
						<g>
							<path class="st3" d="M194.3,103.4l2.6-5.3c1,0.5,2,1.1,2.9,1.7l-3.3,4.9C195.8,104.3,195.1,103.8,194.3,103.4z"/>
						</g>
					</g>
				</g>
				<g>
					<polygon class="st3" points="238.9,146.7 237.5,144.3 264.3,129.2 266.7,131 					"/>
				</g>
			</g>
		</g>
	</g>
</g>
<g id="Layer_5">
</g>
<g id="Layer_3">
</g>
<g id="Layer_2">
</g>
<g id="Layer_4">
</g>
</svg>
